<?xml version="1.0" encoding="utf-8"?>
<!-- Generator: Adobe Illustrator 15.0.0, SVG Export Plug-In . SVG Version: 6.00 Build 0)  -->
<!DOCTYPE svg PUBLIC "-//W3C//DTD SVG 1.1//EN" "http://www.w3.org/Graphics/SVG/1.1/DTD/svg11.dtd">
<svg version="1.1" xmlns="http://www.w3.org/2000/svg" xmlns:xlink="http://www.w3.org/1999/xlink" x="0px" y="0px" width="900px"
	 height="900px" viewBox="0 0 900 900" enable-background="new 0 0 900 900" xml:space="preserve">
	 <style>
		@font-face{font-family:"Proxima Nova Regular";font-weight:normal;font-style:normal;src:url('http://s1.libe.com/font/license/27522D_B_0.eot?6f3b7a3a38b9') format("eot");src:url('http://s1.libe.com/font/license/27522D_B_0.eot?#iefix') format("embedded-opentype"),url('http://s1.libe.com/font/license/27522D_B_0.woff?973092db2463') format("woff"),url('http://s1.libe.com/font/license/27522D_B_0.ttf?326b4ed42028') format("truetype"),url('http://s1.libe.com/font/license/27522D_B_0.svg#Proxima Nova Regular') format("svg")}@font-face{font-family:"Proxima Nova Regular Bold";font-weight:normal;font-style:normal;src:url('http://s1.libe.com/font/license/27522D_C_0.eot?7651b0835130') format("eot");src:url('http://s1.libe.com/font/license/27522D_C_0.eot?#iefix') format("embedded-opentype"),url('http://s1.libe.com/font/license/27522D_C_0.woff?1d97b03ffbee') format("woff"),url('http://s1.libe.com/font/license/27522D_C_0.ttf?c4b6119d8273') format("truetype"),url('http://s1.libe.com/font/license/27522D_C_0.svg#Proxima Nova Regular Bold') format("svg")}@font-face{font-family:"Trade Gothic Bold Cond";font-weight:normal;font-style:normal;src:url('http://s1.libe.com/font/license/tradegothicltstd-bdcn20.eot?1669fae0818a') format("eot");src:url('http://s1.libe.com/font/license/tradegothicltstd-bdcn20.eot?#iefix') format("embedded-opentype"),url('http://s1.libe.com/font/license/tradegothicltstd-bdcn20.woff?7f6be2b8eca9') format("woff"),url('http://s1.libe.com/font/license/tradegothicltstd-bdcn20.ttf?5dda5c1e2946') format("truetype"),url('http://s1.libe.com/font/license/tradegothicltstd-bdcn20.svg#Trade Gothic Bold Cond') format("svg")}
	 </style>
<g id="Fond">
	<rect x="0" y="0" fill="#FFFFFF" width="900" height="900"/>
</g>
<g id="régions">
	<path id="5" fill="#D1D3D4" d="M15.829,235.569l-2.335,1.943l0.773,2.335l3.112-0.772l2.725-1.94l-0.773-1.945L15.829,235.569
		z M112.474,322.039l-0.392,1.941l5.047,3.118l1.556-1.552l-1.938-2.725L112.474,322.039z M126.809,349.276l-1.56,2.716l2.317,8.556
		l10.882,2.741l1.169-1.941l1.945-1.553l-11.258-8.961L126.809,349.276z M275.012,299.168l-1.546-4.274l0.399-6.602l-3.469-13.982
		l3.508-7.763l-2.321-5.052l1.566-8.541l-2.712-3.11l-5.825-0.013l-3.879-1.562l-5.058,5.818l-8.927-3.12l-1.928-8.938l-2.323-3.887
		l-4.272,0.382l-6.217,1.541l-3.493-0.392l-3.103-3.501l-1.149-7.771l-5.048-0.008l-4.277,2.71l-1.949,4.269l2.715,2.725l1.156,4.66
		l1.16,2.721l-1.169,1.553l-1.166,1.548l-0.384-3.104l-3.092-8.55l-4.656-1.949l-3.497,1.936l-0.392,1.941l-3.496-0.394
		l-1.546-3.498l-2.721,1.546l-0.384-3.885l2.336-3.1l-3.494-0.007l-4.666,2.711l-3.881-0.006l-1.561,3.104l-4.662,1.932
		l-7.394,7.367l-3.1-3.114l-5.814-5.057l0.01-5.826l-5.814-6.998l-0.381-4.664l-5.823-0.006l-1.552-1.945l1.558-2.329l-3.105-0.394
		l-0.386-1.941l1.947-3.49l-8.547,3.479l-1.938-2.335l-3.11,1.548l-10.097,1.148l-1.552-1.556l-3.885,0.381l-4.277,3.487
		l-0.781,3.104l2.323,3.11l-1.941,1.162l-0.396,3.886l-3.883-0.398l-1.163-1.552l-8.927-2.734l-3.11,2.71l-0.01,5.05l-2.327-0.394
		l-1.161-3.498l-2.335,2.715l-2.313-8.933l-5.443,2.708l-6.989-0.791l-2.333,2.715l-5.438,0.769l-1.162-2.331l-5.05,0.765
		l-4.275,2.713l-3.883-0.783l-2.72,1.158l0.385,1.557l2.329,1.556l-4.66-0.008l3.881,1.56l-0.394,1.942l-5.045-1.952l-5.823,0.38
		l-3.893,5.041l-0.396,3.881l-2.721,1.549l-0.016,8.545l1.548,3.496l2.717,0.394l1.558-1.938l8.542,0.014l5.054-1.932l3.885-0.771
		l7.77-3.094l-7.385,5.037l-2.335,1.938l0.385,1.941l4.271,0.009l5.052-1.546l-1.17,2.714l2.719,1.559l2.71,3.112l0.773,2.331
		l1.941,0.779l-1.17,1.943l-5.429-3.118l-1.552-2.333l-10.868-1.573l-0.773-1.941l-2.725,2.325l-1.548-1.945l0.004-2.719
		l-1.946,2.715l-2.721,0.772l1.159,3.108l3.498,0.006l-1.56,3.106l-0.012,6.602l1.558-1.939l2.729-5.044l4.658,0.009l6.983,4.282
		l3.096,5.054L64.571,279l-7.765-0.794l-17.088,0.359l-3.498,2.325l1.938,1.943l6.6,0.787l3.102,2.725l1.558-1.938l9.3,10.5
		l1.932,6.995l-4.279,3.877l0.771,2.719l3.498-1.936l8.542,1.179l3.504-3.487l0.392-4.273l0.397-3.881l3.889-3.1l-1.952,5.041
		l0.383,3.498l4.267,3.116l3.496-1.55l-0.771-3.494l3.496,0.779l3.49,3.114l-0.394,2.329l3.875,4.666l4.273,0.009l1.943-1.94
		l2.717,1.171l0.773,2.331l9.706,2.35l1.157,3.883l3.879,3.114l5.441-3.096l3.106,0.006l-4.666,3.873l5.045,1.173l4.267,3.114
		l4.67-5.429l0.773,1.556l-3.504,5.429l1.161,2.336l2.325,3.107l-0.017,8.934l3.101,3.501l1.56-2.718l-3.1-3.5l0.785-5.823
		l3.881,1.173l0.01-5.437l2.711,3.111l2.327,3.108l1.171-3.491l-1.546-4.277l1.554-1.158l3.873,6.219l5.054-1.936l1.941-0.382
		l1.169-1.941l1.939,0.392l-0.392,1.552l1.939,1.561l1.167-1.167l1.162,1.946l-2.335,2.714l-0.781,2.329l-0.39,1.553l-5.438-0.011
		l-3.879-2.335l-3.108-0.008l0.777,1.556l5.429,3.896l8.154,0.399l1.943-1.55l1.939,1.171l1.557-2.329l1.552,1.168l7.381-0.375
		l1.936,1.941l3.108,0.009l-0.004,1.941l-5.05,0.379l-0.002,1.941l1.936,3.498l3.887-2.711l3.496-0.383l3.891-3.487l6.208,2.343
		l4.281-5.82l1.177-6.213l1.945-2.714l5.054-2.321l3.494,0.008l6.995-2.708l7.765,1.566l5.445-5.426l9.33-5.033l0.394-3.493
		l5.827-0.376l8.529,7.002l3.111-3.487l5.84-7.371l-1.159-3.104L275.012,299.168z"/>
	<polygon id="6" fill="#D1D3D4" points="543.343,301.371 537.532,293.982 536.76,291.262 532.495,287.371 
		528.616,286.978 525.118,287.36 522.396,288.906 521.237,285.799 515.792,290.061 512.689,288.893 499.482,289.258 
		501.042,286.539 504.542,282.276 499.89,279.158 497.182,273.329 493.688,272.161 489.811,269.434 486.7,272.922 481.653,270.584 
		479.322,271.745 469.995,274.837 470.006,269.791 468.066,267.456 468.46,263.96 465.363,260.071 461.477,260.842 452.56,252.672 
		452.183,246.456 443.266,236.731 443.663,231.686 441.728,228.575 442.128,221.586 440.194,217.699 439.425,213.039 
		435.544,213.033 435.534,218.083 429.695,225.449 429.302,228.942 423.475,230.1 419.594,228.927 411.046,231.241 400.172,232 
		393.949,237.036 393.939,243.248 398.591,247.529 403.245,250.643 403.237,254.526 402.068,257.241 404.394,260.742 
		400.11,266.172 394.286,266.161 390.786,270.038 391.551,275.478 394.644,284.025 399.301,285.198 400.852,287.529 
		396.966,289.079 394.633,289.852 393.462,292.956 392.29,298.392 396.171,299.17 395.39,302.278 395.384,305.772 393.044,311.595 
		389.935,312.363 389.145,320.52 384.864,325.172 378.647,327.103 377.481,328.266 377.479,329.432 380.194,331.378 
		371.639,337.576 365.815,337.565 362.322,336.395 361.153,338.335 365.806,341.838 364.639,343.387 361.535,342.218 355.327,339.1 
		350.658,343.754 351.432,346.47 352.981,348.026 349.474,355.401 349.074,361.613 342.466,366.648 342.454,371.698 
		342.443,378.298 340.882,382.566 349.51,390.218 348.344,392.547 351.447,392.94 357.66,392.95 361.149,396.064 360.75,403.443 
		370.843,404.622 372.787,402.687 376.674,401.918 377.067,398.034 385.604,401.932 386.372,407.757 392.183,415.146 
		394.891,422.141 399.585,427.667 397.644,435.044 407.739,445.142 409.291,445.531 415.118,454.074 414.533,459.118 
		418.995,461.069 424.824,458.749 429.086,463.805 438.421,456.055 441.136,458.39 450.068,457.627 452.403,455.3 465.996,452.995 
		473.369,456.889 480.364,453.794 485.8,454.582 490.087,446.823 498.628,445.671 509.117,443.75 510.686,435.985 509.531,430.934 
		513.615,425.974 516.729,422.873 526.435,422.5 531.882,416.684 537.317,417.081 540.43,413.594 541.219,405.829 542.785,400.783 
		540.46,396.507 537.764,384.074 535.062,375.138 529.247,368.915 531.592,360.765 527.34,349.883 530.838,346.115 533.562,343.681 
		532.024,336.3 528.533,332.021 524.651,330.849 523.497,325.023 525.056,323.476 528.937,324.648 535.542,323.492 536.711,319.221 
		537.494,316.894 535.553,316.113 534.002,313.393 542.947,306.417 	"/>
	<path id="12" fill="#D1D3D4" d="M191.654,391.37l-0.771-3.892l-2.331-0.392l-2.725,1.552l1.55,3.11l3.496,1.952l6.208,5.451
		l-1.158-3.498L191.654,391.37z M179.562,413.894l-0.783,3.498l5.052,1.566l1.941,0.389l1.173-2.329l-5.438-3.51L179.562,413.894z
		 M394.633,289.852l2.333-0.772l3.886-1.55l-1.551-2.331l-4.657-1.173l-5.048,0.379l-6.588-8.553l-2.721,2.324l-12.414-7.788
		l-5.427-4.669l-3.091-10.101l-8.937,2.312l-0.396,3.881l-11.262,1.922l-0.384-3.884l0.004-1.939l-3.497,0.769l-2.323-3.887
		l0.787-6.212l-3.101-2.336l-3.116,3.878l-6.607,4.077l-7.765-1.565l-3.887,2.324l-3.494-0.394l-0.008,3.882l-5.05,1.154
		l-1.156-4.269l-2.721,1.158l-0.006,2.717l-1.941,0.772l-2.713-3.11l-2.719-0.004l-1.158-4.272l-1.552-1.556l-5.434-0.788
		l-3.11,1.547l-4.662,1.158l-1.566,8.541l2.321,5.052l-3.508,7.763l3.469,13.982l-0.399,6.602l1.546,4.274l-8.168,8.144l1.159,3.104
		l-5.84,7.371l-3.111,3.487l-8.529-7.002l-5.827,0.376l-0.394,3.493l-9.33,5.033l-5.445,5.426l-7.765-1.566l-6.995,2.708
		l-3.494-0.008l-5.054,2.321l-1.945,2.714l-1.177,6.213l-4.281,5.82l-6.208-2.343l-3.891,3.487l-3.496,0.383l-3.887,2.711
		l-0.392,1.941l-3.106-0.394l-2.725,3.492l-3.106-0.398l4.261,7.39l-1.943,0.772l-2.721,1.158l6.206,3.506l4.272-0.379l3.496,0.781
		l2.712,2.727l6.606-3.485l3.503-4.267l11.649,0.022l6.985,3.508l5.426,5.832l-6.213-1.177l-7.756-4.284l-9.71,0.759l-0.783,2.719
		l0.38,5.438l-0.39,1.939l-4.66-0.008l-0.009,2.719l12.419,5.457l2.325,3.888l-0.788,4.658l-8.557,8.917l0.375,6.212l6.979,7.782
		l1.938,1.946l3.979,1.996l1.586,3.516l3.884,8.154l1.166,5.824l2.327,1.167l1.167,2.719l6.212,5.435l7.379,1.553l3.883,2.331
		l1.557,3.495l7.376,1.163l1.553,3.109l6.214,2.719l0.777-3.108l6.602,0.775l6.602-3.104l1.939-1.164l4.275-3.108v3.494
		l-1.944,4.274h6.213l5.826,1.552l3.106-1.552l7.767-0.392l4.66-4.658l-3.496-2.719l-3.493,3.108l-0.39-11.651l3.495-2.719
		l0.388-7.379l-2.329-1.941l-3.562-11.228l-2.386-4.238l2.725-3.491l-0.386-1.941l-2.331-0.005l-6.2-7.001l0.004-2.719l-3.487-3.887
		l17.477-0.749l4.662-1.934l-2.323-3.885l1.946-2.719l3.885-0.77l3.879,1.95l5.058-3.483l5.046,0.966l6.989,0.399l2.331-1.158
		l3.884,0.394l5.447-6.202l1.938,1.164l1.562-4.269l0.011-6.6l0.012-5.05l6.608-5.035l0.399-6.212l3.508-7.375l-1.55-1.557
		l-0.773-2.716l4.669-4.654l6.208,3.118l3.104,1.169l1.167-1.549l-4.652-3.503l1.169-1.94l3.493,1.171l5.823,0.011l8.556-6.198
		l-2.715-1.946l0.002-1.166l1.166-1.163l6.217-1.931l4.28-4.652l0.79-8.156l3.109-0.769l2.34-5.822l0.006-3.494l0.781-3.108
		l-3.881-0.778l1.172-5.436L394.633,289.852z"/>
	<path id="1" fill="#D1D3D4" d="M852.648,192.789l-4.658-2.729l-1.159-3.495l-1.941-0.781l-5.439,3.875l-3.885-2.727l-3.106,2.324
		l-6.989-1.563l-8.923-5.064l-1.158-4.276l-7.764,1.152l-2.34,4.656l-11.262-0.021l-2.715-2.333l-4.274,0.769l-0.765-5.438
		l-11.258-2.349l-0.787,6.212l-3.884-0.006l-4.656-2.729l-1.933-5.05l-4.259-6.61l-2.709-6.605l-8.144-6.616l-6.212-0.399
		l-8.927-3.9l-8.168,7.365l-3.883,0.382l-1.549-1.167l-1.546-4.276l-6.991-0.788l-2.708-4.664l-10.883,5.417l-5.05-0.01
		l-1.941,0.388l-6.976-10.11l-3.493,1.159l-5.423-7.774l-5.436-0.787l-9.691-9.727l-6.212-0.787l-3.108,1.548l-1.941-0.779
		l1.168-1.165l0.779-3.881l-0.772-1.167l0.389-1.165l0.013-4.271l-6.21-3.506l3.901-10.868l0.399-6.6l-3.104-1.171l-8.163,6.198
		l-4.291,10.479l-3.892,2.71l-11.262,1.146l-4.656-1.56l-6.213-0.012l0.38,3.106l1.546,4.665l-0.779,2.329l-0.403,9.318
		l-7.793,13.966l-3.493-0.783l-0.009,5.437l-0.401,6.989l-0.015,7.767l1.942,1.558l-1.561,3.492l-7.765-1.956l-2.72,2.325
		l1.548,1.556l-1.165,1.553l-2.719-0.394l-8.547,1.927l-1.562,5.046l3.094,6.997l3.104,1.943l-1.559,3.882l-3.495-1.171l-3.11,1.936
		l-0.004,3.885l2.715,1.169l1.929,6.993l-1.945,1.938l-0.783,5.048l-4.668,3.101l-2.731,7.76l-1.945,2.329l-1.562,6.208l2.711,3.5
		l-1.566,6.6l5.827,0.01l0.379,3.884l-3.497,1.936l-0.783,3.104l-3.884,2.325l2.321,5.054l-3.502,1.936l-0.399,6.598l1.546,4.662
		l4.666-2.706l7.744,12.438l-2.725,4.656l2.327,1.556l1.941-1.55l2.715,2.335l-0.002,1.553l4.662-1.932l2.329,2.331l-0.011,4.274
		l2.325,4.272l3.108-0.381l-0.397,4.66l3.493,0.006c0,0-1.168,3.491-0.006,5.05c1.158,1.552,2.71,1.945,2.71,1.945l10.879-3.09
		l5.827-0.377l3.104,1.556l1.941,0.007l1.561-3.104l5.829-0.765l8.149,0.789l1.173-5.046l5.441-1.546l3.879,1.173l5.05,0.397
		l1.936,3.11l3.104,1.171l-0.006,5.435l2.325,2.335l2.335-2.714l0.77,4.664c0,0,2.716-0.388,3.1,2.331
		c0.384,2.721-3.12,8.927-3.12,8.927l14.735,11.288l1.172-3.493l5.04,5.058l-1.561,3.879l1.94,1.557l3.887-3.099l4.662-0.769
		l0.004-3.883l3.504-3.878l6.602-1.156l1.942,0.783l3.107-1.158l3.108,0.004l4.285-7.758l-3.492-2.335l1.561-4.271l2.335-2.324
		l3.106,0.004l0.781-2.715l3.109-1.548l1.171-2.719l0.396-3.881l1.167-2.717l1.941,0.392l0.379,5.438l4.277-3.099l1.562-6.212
		l3.501-2.715l2.329,1.561l-0.397,5.046l3.487,3.501l4.273,0.007l3.497-2.711l6.217-1.152l5.814,5.837l7.385-4.65l5.816,5.835
		l9.307,7.396l3.114-3.879l0.765,6.214l5.826,0.397l4.646,7.39l-2.341,7.374l2.32,3.498l3.108,0.392l3.1,3.112l2.709,5.833
		l2.32,4.662l6.987,1.565l10.104-2.7l-1.166-1.556l0.008-1.941l6.612-7.367l-0.38-4.66l2.725-3.881c0,0-3.098-5.05-3.098-6.216
		c0.004-1.165,1.564-3.88,1.564-3.88l-0.773-3.107l1.179-8.932l1.952-5.431l0.401-5.438l-2.325-3.502l-1.156-6.604l2.344-7.762
		l6.238-14.356l-0.375-5.824l2.738-12.811l-0.373-8.155l7.396-10.86l0.008-3.496l1.558-4.269l4.667-3.098l8.186-18.627
		L852.648,192.789z"/>
	<path id="9" fill="#D1D3D4" d="M661.322,677.79l-0.373-6.991l-4.647-5.443l-1.551-4.662l-7.756-5.064l-6.212-0.396l0.379,5.046
		l-3.107,0.383l-0.773-3.107l-4.267-1.561l-4.664,2.713l-3.89,3.096l-5.82-3.114l-3.496,1.936l-1.554-1.167l0.022-11.264
		l-5.044-3.116l-2.696-11.264l-3.495-1.561l-0.77-5.052l-2.316-6.993l-2.325-1.554l-1.546-4.279l-5.04-5.441l-5.824-0.014
		l-1.936-3.498l-4.274-0.394l-0.779,3.104l-6.995,3.483l-0.38-6.603l-1.544-4.276l-4.265-5.054l-5.056,5.04l-3.498,1.546
		c0,0-2.725,3.104-2.725,4.655c-0.004,1.553-5.043-3.503-5.043-3.503l-2.721,0.381l0.375,9.324l-3.502,1.546l-0.793,10.096
		l-2.721,3.101l-2.715-3.888l-0.765-6.604l-2.713-2.719l-1.541-7.385l-3.88-1.95l-2.333,0.777l1.177-4.66l-2.719-1.945l-8.553,6.587
		l-10.913,23.279l-6.989-0.011l-1.938-3.497l-8.544,1.535l-0.783,2.719l-4.256-8.166l0.793-9.706l-3.875-5.052l0.008-4.66
		l-3.487-4.668l-4.66,0.38l-3.489-1.559l-5.064,6.592l-5.822-0.006l-3.877-4.281l-2.709-4.668l-2.715-2.721l-4.269-0.004
		l-2.718-0.783l-5.827,0.767l-2.337,3.1l1.938,3.112l0.369,11.263l-8.945,8.14l0.771,3.493l-12.443,8.138l0.77,4.271l-5.055,3.485
		l-3.111,3.103l-5.438-0.011l-0.394,3.884l5.802,13.213l-6.605,1.542l-3.489-2.725l-1.171,3.104l-2.729,5.044l6.21,3.118
		l-2.729,5.818l-3.114,3.491l2.325,3.11l-9.325,2.7l-1.558,3.104l-6.217,1.934l-5.433-3.118l-2.331,2.327l-6.217,0.767l-6.607,3.483
		c0,0-5.438-0.397-6.602-0.399c-1.163-0.005-6.602,1.154-6.602,1.154l-2.723,1.546l-2.719-0.004l-1.555,1.939l-0.787,5.435
		l-4.658-1.177l-0.771-2.716l1.554-1.163l-2.715-2.335l-7.774,5.035l-4.631,2.884l1.164,2.328l-1.554,14.76l-1.939,1.163
		l0.774,4.272l-2.717,4.271l2.717,3.108l5.353-0.166l3.104,0.778l0.384,3.498l2.717,0.783l1.544,6.216l-4.285,6.202l3.104,1.559
		l3.891-3.877l-0.397,5.826l2.319,5.439l-3.104-0.779l-2.335,3.49l1.936,3.497l-2.344,6.989l-6.611,5.811l-3.33,0.167l-1.943,6.991
		l-3.106,0.387l-3.495,5.05l-0.775,8.54l0.775,6.991l7.381,5.826l3.881-0.39l6.366,7.998c0,0,3.49,1.561,4.656,1.954
		c1.163,0.385,8.156-0.768,8.156-0.768l4.274-1.932l4.658,0.783l1.55,2.336l1.936,2.718l5.058-5.039l5.823,2.341l12.425,0.798
		l5.043,1.951l0.779-1.552l-3.098-3.887l-0.374-9.323l3.502-2.712l6.213,0.401l6.009,3.564l2.524,1.496l3.109-1.161l9.311,4.289
		l3.1,4.666l3.492,1.173l10.1-1.538l4.653,4.281l2.315,7.771l2.333-1.548l1.171-3.104l8.153,0.399l2.715,2.725l2.331-1.548
		l3.881,1.173l0.384,3.104l1.552,1.168l-0.008,4.271l-2.725,4.656c1.552-0.776,5.046,0.397,5.046,0.397l8.537,3.511l4.654,4.668
		c0,0,2.324,2.331,3.489,2.725c1.162,0.39,6.602-1.542,6.602-1.542l10.104-3.478l6.216-0.379l7.367,4.674l8.931,3.121l8.931,0.014
		l3.888-2.321l-1.163-1.168l1.555-2.325l4.664-1.16l5.05-2.707l5.829-1.156l3.107-0.773l3.882,0.398l3.879,2.339l6.798-0.574
		l-3.096-5.439l-0.772-2.331l-3.297-1.558l-2.133-4.279l-1.349-5.632l-1.355-1.556l0.394-2.135l1.749-1.162l0.207-7.187
		l-1.355-2.523l-4.851-2.532l-0.773-1.361l0.781-2.911l1.751-2.909l3.112-0.771l1.552-1.742l-0.187-4.08l0.006-3.688l1.759-5.823
		l-1.552-0.392l-1.552-1.556l0.562-2.508l1.461,1.282l1.558-1.941l-0.241-0.365l2.491,1.408l2.534-6.016l5.641-6.206l3.501-3.291
		l3.11-2.329l5.439-0.183l5.63-0.961l4.084-4.458l-0.19-1.361l-1.749-0.39l0.783-2.521l3.506-4.459l4.47-3.488l1.941,0.779
		l-0.394,1.359l-7.387,7.365l-0.009,1.552l2.92-1.546l4.278-5.044l4.082-1.74l4.08-2.125l3.888-2.909l5.64-4.455l0.002-1.359
		l-5.638,4.263l-2.333,0.966l-0.382-2.135l1.557-1.744l4.079-1.743l3.11-2.518l9.327-5.031l-0.587,3.493l-3.303,1.158l-4.472,2.129
		l-0.192,1.166l6.218-3.098l1.936,0.593l2.526,0.772l1.351,4.857l2.325,2.531l5.242,0.007l0.201-2.912l0.587-2.911l5.049-1.544
		l4.281-4.267l3.502-1.936l-0.773-3.107l4.673-8.145l6.993-0.379l3.897-8.147l-0.763-8.934l3.107-1.546l2.173-2.51l7.554-8.733
		L661.322,677.79z M323.083,758.135l1.941-0.388l2.329-1.554l-0.388-2.329l-0.777-1.941l-2.329,1.166l1.165,1.553l-1.941,1.162
		V758.135z M320.366,761.243l-0.779,1.552l1.943,2.327l2.717-0.386l-0.388-3.493l-1.554-0.777L320.366,761.243z"/>
	<path id="3" fill="#D1D3D4" d="M820.002,540.206c-7.37-3.504-12.021-9.727-12.791-11.282c-0.777-1.553-0.763-8.158-0.763-8.158
		l-9.316-3.508l-0.77-3.11l-3.102-3.498l-0.384-3.107l2.335-3.882l2.723-1.158l5.443-3.098l3.5-3.877l0.791-6.987l-2.712-5.054
		l-2.327-0.394l-3.877-3.5l-2.333,0.771l-0.38-5.824l-0.771-2.331l-3.496-0.394l-1.548-3.112l0.397-5.825l2.725-3.102l0.396-3.489
		l-2.327-1.95l-3.491-1.558l-0.384-3.496l-3.493-1.558l-4.271,0.769l-5.825,0.375l-5.826-0.006l-3.504,4.263l-5.827,1.546
		l-2.715-1.173l-3.499,3.101l-0.791,4.658l4.664,1.565l-0.011,4.269l-6.999,4.646l-3.108,2.715l-5.824-1.175l-3.498,1.548
		l-0.765-5.829l5.056-3.873l2.721-3.102l-1.154-4.272l2.725-5.434l-4.267-2.335L739,448.034l-3.892,4.65l-4.67,6.985l-4.671,5.039
		l-8.924-1.181l-1.936-5.054l-4.271-0.006l-5.06,5.814l-5.046-0.785l1.944-2.325l-1.159-2.331l-3.493-1.56l-1.941,1.158
		l-2.715-2.721l-0.384-3.108l-3.493-0.783l-1.158-3.883l-6.983-3.508l-1.552-2.331l-8.156,1.538l-2.329-1.557l-3.493,1.158
		l-5.078,15.522l0.772,3.108l-0.397,3.108l-3.498,3.877l-1.955,7.373l-3.494-0.783l-2.715-1.943l-0.379-4.275l1.945-3.1
		l-3.881-2.725l-5.441,4.258l-1.939-2.335l-3.104,0.773l-8.157,0.763l-0.4,6.602l-0.782,2.327l-2.715-0.779l-1.169,2.715
		l-3.497,0.772l-2.325-3.109c0,0-3.498,0.769-6.602,0.761c-3.104-0.002-12.425-0.796-12.425-0.796l-1.939-3.497l-1.544-3.498
		l0.394-1.941l1.938,0.002l0.006-3.493l3.886,1.172l0.778-2.719l-0.772-3.497l0.018-9.71l-1.55-1.943l-13.587-3.129l-0.375-6.989
		l-1.552-0.779l-3.099-6.22l-3.096-2.725l-2.197-3.705l-4.792,1.363l1.158,4.664l-4.272,0.38l-2.335,2.327l-1.553-0.004l1.173-3.494
		l-4.656-3.114l-3.112,2.715l-3.1-2.339l-6.999,3.098l-5.036-4.671l-3.297-2.646l-1.55-3.887l-5.436-0.397l-5.447,5.816
		l-9.705,0.373l-3.114,3.101l-4.084,4.96l1.154,5.052l-1.568,7.765l-10.489,1.921l-8.541,1.152l-4.287,7.759l4.652,4.67
		l-0.392,2.329c0,0,4.629,2.709,3.496,2.724c0.68,0,2.712,0.003,2.712,0.003l1.938,2.335l7.364,7.39l2.7,8.547l-1.941,1.941
		l0.384,3.104l3.877,4.28l0.765,5.827l-6.615,7.366l-6.612,5.812l-1.173,5.046l5.427,4.281l3.494,2.725l1.154,6.216l-4.276,1.546
		l1.158,5.05l3.098,5.441l-1.168,1.939l0.379,5.05l-1.949,3.881l1.939,2.336l-1.95,2.71l-3.108-0.004l-3.489-1.558l-1.953,6.598
		l-12.826,7.743l0.769,4.273l3.104,1.56l-6.621,10.862l-2.719-0.394l1.152,7.381l-3.892,4.263l3.487,4.668l-0.008,4.66l3.875,5.052
		l-0.793,9.706l4.256,8.166l0.783-2.719l8.544-1.535l1.938,3.497l6.989,0.011l10.913-23.279l8.553-6.587l2.719,1.945l-1.177,4.66
		l2.333-0.777l3.88,1.95l1.541,7.385l2.713,2.719l0.765,6.604l2.715,3.888l2.721-3.101l0.793-10.096l3.502-1.546l-0.375-9.324
		l2.721-0.381c0,0,5.039,5.056,5.043,3.503c0-1.552,2.725-4.655,2.725-4.655l3.498-1.546l5.056-5.04l4.265,5.054l1.544,4.276
		l0.38,6.603l6.995-3.483l0.779-3.104l4.274,0.394l1.936,3.498l5.824,0.014l5.04,5.441l1.546,4.279l2.325,1.554l2.316,6.993
		l0.77,5.052l3.495,1.561l2.696,11.264l5.044,3.116l-0.022,11.264l1.554,1.167l3.496-1.936l5.82,3.114l3.89-3.096l4.664-2.713
		l4.267,1.561l0.773,3.107l3.107-0.383l-0.379-5.046l6.212,0.396l7.756,5.064l1.95-3.882l6.212,1.562l1.932,5.054l5.825,0.397
		l6.999-5.037l6.598,0.791l4.278-1.55l-1.177,5.438l1.938,1.558l6.602,0.01l1.552,1.171l5.434,0.785l1.939,3.886l2.327,0.394
		l2.32,3.109l4.664,0.007l2.721-2.323l3.116-4.269l2.325,2.723l2.717-0.384l-2.711-2.721l2.719-1.552l0.013-6.212l-3.494-1.95
		l-0.379-4.271l-10.873-0.795l-3.1-2.723l0.006-4.66l3.496,0.008l-2.325-2.335l0.392-3.494l5.827,0.785l2.329,0.39l1.945-3.1
		l-1.55-3.108l2.343-5.823l0.011-6.212l1.945-1.552l4.269,1.562l7.774-4.259l-0.775-1.557l-1.941-1.166l1.952-5.823l2.719,2.725
		l6.607-5.035l-1.938-2.725l13.988-5.798l12.814,0.02l-0.759-8.929l-1.934-4.668l-3.495-0.006l-2.715-1.557l0.394-4.66l1.562-5.046
		l6.212,0.787l2.325,4.277l3.877,1.558l3.506-2.71l-1.555-3.108l2.728-2.327l4.655,1.173l4.125,1.704l1.704-3.634l7.771-3.483
		l3.496,1.561l3.104,0.006l1.173-3.108l10.105-4.638l5.831-3.487l-2.319-8.158l3.122-7.37L820.002,540.206z M680.394,653.746
		l-3.108,3.101l-3.889,1.936l-3.106-0.007l-1.162-1.943l1.563-4.267l1.559-3.493l3.104-0.77l3.104,1.559l2.719,1.556
		L680.394,653.746z M493.55,464.306c0.003,0,0.004-0.001,0.007-0.001C493.298,464.305,493.229,464.305,493.55,464.306z"/>
	<polygon id="7" fill="#D1D3D4" points="892.53,798.402 892.304,795.003 891.054,791.105 889.939,785.331 890.551,780.895 
		890.019,779.198 890.67,777.656 889.576,773.247 889.702,770.01 888.246,764.241 883.526,756.818 883.023,757.167 883.225,758.867 
		884.782,760.886 885.332,762.925 886.88,764.09 887.599,766.636 885.362,765.309 883.969,762.945 883.238,759.892 882.376,759.223 
		882.161,756.329 882.423,751.724 883.093,750.697 885.004,742.49 885.817,739.92 884.584,737.386 884.289,729.391 882.652,722.774 
		882.792,720.726 880.885,718.711 878.998,717.894 877.302,718.261 876.44,717.591 873.731,718.824 873.269,722.068 
		874.304,722.563 873.652,724.612 874.524,725.796 872.214,730.259 872.427,732.983 873.618,733.134 873.648,734.834 
		871.289,736.745 874.104,742.152 873.607,743.521 874.021,747.944 872.174,749.679 872.214,752.059 870.031,753.97 866.716,748.91 
		865.188,749.273 864.48,747.756 861.775,748.989 860.404,748.157 856.484,748.389 851.435,751.88 850.956,754.098 851.843,756.467 
		849.8,756.161 847.962,758.575 847.262,757.395 846.089,758.434 841.841,759.01 840.798,758.003 839.286,759.221 836.571,759.774 
		836.432,761.479 831.325,762.068 831.177,763.27 830.698,765.487 828.67,766.542 827.126,765.715 824.896,764.561 823.383,765.77 
		824.938,767.281 824.137,770.358 822.285,771.923 819.627,776.052 821.668,775.845 821.354,777.726 819.696,780.308 
		820.067,782.345 816.815,781.548 815.347,785.312 813.474,785.514 812.646,786.89 811.096,786.062 810.444,787.946 
		812.717,791.657 814.735,789.922 817.294,790.396 817.322,792.096 815.633,792.974 815.997,794.504 819.593,795.469 
		821.116,795.102 823.22,799.159 816.943,800.277 815.935,801.314 811.858,801.718 812.224,803.416 813.587,803.394 
		813.786,805.437 813.336,809.19 814.208,810.369 812.355,811.931 814.405,812.239 814.43,813.428 817.322,813.556 821.973,816.715 
		822.965,814.998 825.219,817.517 824.214,818.724 825.929,819.383 827.177,822.938 825.318,823.813 820.593,826.615 822.5,828.63 
		819.467,830.893 817.584,830.241 815.05,831.475 817.821,834.662 817.902,839.436 819.582,838.046 823.492,837.98 827.239,837.583 
		828.727,834.838 831.299,835.986 832.21,839.377 829.836,840.264 830.727,842.978 828.698,843.862 829.738,845.21 829.608,847.594 
		827.256,849.505 825.539,848.85 825.042,849.539 826.601,851.219 824.425,853.638 821.711,854.191 822.067,855.549 
		824.287,855.683 824.131,856.707 826.018,857.53 831.771,855.052 832.638,855.894 830.284,857.973 831.51,860.162 833.2,859.29 
		832.837,858.103 835.044,857.387 835.245,859.426 837.645,860.239 840.871,859.85 841.402,861.201 839.561,863.107 839.408,864.13 
		837.729,865.856 836.87,865.189 834.176,867.283 833.313,866.441 831.309,869.023 831.672,870.379 831.009,871.418 832.21,872.079 
		832.438,875.65 835.349,876.626 837.565,877.103 836.921,879.324 838.294,879.817 839.644,879.113 840.339,879.955 
		842.553,879.921 843.103,882.463 846.33,881.902 847.725,883.755 849.063,882.369 850.783,883.538 851.491,885.226 
		852.494,884.019 853.37,885.538 855.198,882.787 856.055,882.941 855.608,887.208 856.961,886.504 859.355,886.977 
		857.231,892.972 860.114,892.075 864.598,895.579 867.647,894.51 868.13,892.972 871.828,889.507 870.445,888.332 868.258,890.075 
		868.061,888.202 871.579,884.57 872.402,883.024 872.035,881.331 872.174,879.281 871.139,878.106 873.835,876.699 874.49,874.646 
		876.525,874.274 878.856,871 879.181,869.803 877.477,870 874.249,870.394 872.406,872.467 871.841,868.9 874.027,867.33 
		875.235,868.334 877.45,868.127 877.761,865.909 878.947,865.892 879.93,863.318 879.559,861.452 881.417,860.401 881.865,856.479 
		881.609,851.032 880.733,849.515 880.623,842.533 881.216,837.074 881.524,834.687 880.465,832.485 881.997,832.463 
		887.48,824.028 888.446,820.27 890.303,819.217 892.417,812.885 891.93,803.52 	"/>
	<polygon id="8" fill="#D1D3D4" points="569.083,239.671 563.256,239.661 564.822,233.062 562.111,229.562 563.674,223.354 
		565.619,221.024 557.476,213.634 553.982,214.015 550.497,207.797 547.78,206.626 543.627,200.941 543.52,200.795 542.365,194.964 
		539.263,192.243 534.207,196.504 532.655,196.112 530.706,199.606 528.768,198.825 527.995,195.331 523.725,196.486 
		521.783,195.319 517.896,198.417 514.404,195.307 508.189,196.072 506.644,192.962 502.753,195.675 500.428,194.116 
		500.821,191.397 494.613,188.281 489.176,188.273 487.229,190.987 480.628,190.588 474.81,185.528 465.094,190.17 455,189.767 
		452.673,187.044 453.069,182.386 456.566,181.612 454.239,180.444 450.742,181.217 448.796,183.932 448.398,189.752 
		441.78,198.287 433.619,202.934 435.16,208.758 439.825,207.214 439.425,213.039 440.194,217.699 442.128,221.586 441.728,228.575 
		443.663,231.686 443.266,236.731 452.183,246.456 452.56,252.672 461.477,260.842 465.363,260.071 468.46,263.96 468.066,267.456 
		470.006,269.791 469.995,274.837 479.322,271.745 481.653,270.584 486.7,272.922 489.811,269.434 493.688,272.161 497.182,273.329 
		499.89,279.158 504.542,282.276 501.042,286.539 499.482,289.258 512.689,288.893 515.792,290.061 521.237,285.799 
		522.396,288.906 525.118,287.36 528.616,286.978 532.495,287.371 537.169,280 537.948,276.896 534.845,275.726 537.573,269.906 
		537.971,266.023 538.155,265.961 541.469,264.865 546.51,267.979 550.394,266.823 553.499,267.215 557.778,264.116 
		559.718,264.506 560.117,257.908 563.619,255.973 561.298,250.919 565.182,248.594 565.965,245.49 569.462,243.555 	"/>
	<path id="11" fill="#D1D3D4" d="M456.577,174.625l-5.809-7.003l1.941-1.548l0.397-3.494l0.779-3.883l-2.715-1.557l1.562-4.658l-2.717-1.558
		c0,0-1.16-2.721-1.546-3.887s3.114-5.043,3.114-5.043l-0.382-2.717l-3.107,1.159l-1.553-1.556l6.998-5.425l-2.312-8.547
		l-7.356-13.605l-5.429-3.504l-8.147-4.285l-12.835,10.073l-9.716,4.256l-4.658-0.785l-8.937,3.479l-14.76,1.915l-12.83,8.521
		l-8.938,3.481l-5.063,8.533l-4.681,12.03l3.489,1.948l1.163,1.554l-1.941,1.163l19.803,0.034l-8.937,4.644l-5.438-1.175
		l-3.885,1.546l-11.666,8.913l-8.158,1.538l-4.271-0.396l-5.429-3.685l-29.896-2.77l-4.656-2.729l-3.879-1.95l-7.769,1.152
		l-1.952,5.436l-4.269-1.562l0.394-3.883l1.171-3.881l-4.646-6.61l-4.265-5.056l6.612-6.2l-0.765-5.441l-3.492-3.11l-6.984-1.954
		l-7.774,4.646l-2.719-0.394l-3.11,1.938l-2.715-1.948l-3.493-0.781l-10.086-5.456l-3.105-0.781l-1.559,1.938l-0.004,2.329
		l5.816,5.06l-0.01,6.602l-3.114,3.102l0.771,3.495l1.936,3.108l1.152,8.158l2.329,0.781l3.097,5.054l3.098,6.218l1.932,4.664
		l2.331,0.005l-0.394,3.495l0.771,2.717l-2.339,4.658l0.772,2.719l-0.008,5.048l0.771,2.72l1.941,0.005l-0.783,4.658l1.16,1.943
		l-3.122,8.537l2.323,3.887l-0.007,4.271l-1.168,2.329l5.814,5.837l6.602-1.152l-0.781,3.104l-6.216,3.094l-5.827-0.01l2.323,3.887
		l1.928,8.938l8.927,3.12l5.058-5.818l3.879,1.562l5.825,0.013l2.712,3.11l4.662-1.158l3.11-1.547l5.434,0.788l1.552,1.556
		l1.158,4.272l2.719,0.004l2.713,3.11l1.941-0.772l0.006-2.717l2.721-1.158l1.156,4.269l5.05-1.154l0.008-3.882l3.494,0.394
		l3.887-2.324l7.765,1.565l6.607-4.077l3.116-3.878l3.101,2.336l-0.787,6.212l2.323,3.887l3.497-0.769l-0.004,1.939l0.384,3.884
		l11.262-1.922l0.396-3.881l8.937-2.312l3.091,10.101l5.427,4.669l12.414,7.788l2.721-2.324l6.588,8.553l5.048-0.379l-3.093-8.548
		l-0.765-5.439l3.5-3.877l5.824,0.011l4.283-5.43l-2.325-3.501l1.169-2.715l0.008-3.884l-4.654-3.113l-4.651-4.281l0.01-6.212
		l6.223-5.036l10.874-0.759l8.548-2.314l3.881,1.173l5.827-1.157l0.394-3.493l5.839-7.366l0.01-5.05l3.881,0.006l0.4-5.825
		l-4.665,1.544l-1.541-5.824l8.161-4.646l6.618-8.535l0.397-5.82l1.946-2.715l3.497-0.772l2.327,1.168l1.557-2.714L456.577,174.625z
		"/>
	<path id="2" fill="#D1D3D4" d="M248.879,488.657l-1.941-2.333l-2.721-3.889l-1.557,0.778l1.557,7.385l3.108,4.663l3.109,3.887l1.167,3.498
		l-1.167,1.166l1.557,2.725l2.331-1.556l1.556-5.441l-1.556-3.502l-0.775-6.605L248.879,488.657z M505.875,522.963l-3.494-2.725
		l-5.427-4.281l1.173-5.046l6.612-5.812l6.615-7.366l-0.765-5.827l-3.877-4.28l-0.384-3.104l1.941-1.941l-2.7-8.547l-7.364-7.39
		l-1.938-2.335c0,0-2.032-0.003-2.712-0.003c1.133-0.015-3.496-2.724-3.496-2.724l0.392-2.329l-4.652-4.67l-5.436-0.788
		l-6.995,3.095l-7.373-3.894l-13.593,2.305l-2.335,2.327l-8.933,0.763l-2.715-2.335l-9.335,7.75l-4.262-5.056l-5.829,2.32
		l-4.462-1.951l0.585-5.044l-5.827-8.543l-1.552-0.39l-10.096-10.098l1.941-7.377l-4.694-5.526l-2.708-6.995l-5.811-7.389
		l-0.768-5.825l-8.537-3.897l-0.394,3.884l-3.887,0.769l-1.944,1.936l-10.093-1.179l0.399-7.379l-3.489-3.114l-6.213-0.01
		l-3.104-0.394l1.166-2.329l-8.628-7.651l-1.938-1.164l-5.447,6.202l-3.884-0.394l-2.331,1.158l-6.989-0.399l-5.046-0.966
		l-5.058,3.483l-3.879-1.95l-3.885,0.77l-1.946,2.719l2.323,3.885l-4.662,1.934l-17.477,0.749l3.487,3.887l-0.004,2.719l6.2,7.001
		l2.331,0.005l0.386,1.941l-2.725,3.491l2.386,4.238l3.562,11.228l2.329,1.941l-0.388,7.379l-3.495,2.719l0.39,11.651l3.493-3.108
		l3.496,2.719l-4.66,4.658l-7.767,0.392l-3.106,1.552l-5.826-1.552h-6.213l1.944-4.274v-3.494l-4.275,3.108l-1.939,1.164
		l-6.602,3.104v4.271l-5.05,3.498l-1.941,4.66l0.777,3.104l5.437,6.606l3.106,5.822l-3.106,1.941l3.106,1.163l-0.775,2.721
		l5.048,0.388l-4.66,2.331l1.165,2.331l-3.496,6.212c0,0-2.717-3.106-2.717-1.552c0,1.552,0,4.271,0,4.271l1.553,0.386l-0.388,2.718
		l-3.498-1.552l-3.106,1.552l-1.939,7.769l10.096,6.987l17.864,16.701l1.552,3.496l4.66,13.203l0.39,2.327l1.554,13.984l2.717,7.375
		l2.719,2.717l3.107,2.333l-2.331,0.775l1.942,2.723l-0.388,2.714l-2.331-2.329l-4.271-5.05l-3.884-5.435l-1.166-8.154
		l-3.494-13.595l-5.826-9.32l-11.261-11.647l1.555-3.108l-1.555-3.108l-3.495,0.392v2.717l-2.719,2.333l-0.39,5.046
		c0,0-2.327,23.688-5.435,40.388c-3.106,16.697-3.884,31.067-5.825,35.724c-1.941,4.664-1.554,8.935,0,8.157
		c1.554-0.778,2.719-6.602,2.719-6.602l5.435-8.153l6.992,5.824l1.164,2.329l2.331,2.329l0.388,1.552h-9.708l-2.719-0.772
		l-5.438,8.539l-0.774,1.943l0.774,6.215c0,0-12.036,71.838-20.968,88.927l-3.495,4.658l-2.721,3.496l-1.939,3.107l-5.438,3.884
		l-7.379-0.39l0.39,2.716l4.66,5.827l5.825,0.39l0.388,5.05l2.718,1.939l5.05-1.939l3.884,1.552l4.658,1.552v2.334l-2.719,1.938
		l-1.555,7.381l-3.104,3.495l0.388,2.717l5.437,2.329l3.494-0.777v-5.435l2.719-0.777l1.554,1.552v3.108l7.379,1.552l3.493,2.719
		l5.05-0.39l7.767,6.991l3.883,0.39l9.708-1.164v7.376l5.436,3.886l5.438,6.602h3.107l1.941-3.885l5.048,3.885l5.436-3.885h4.66
		l-0.775-6.991l0.775-8.54l3.495-5.05l3.106-0.387l1.943-6.991l3.33-0.167l6.611-5.811l2.344-6.989l-1.936-3.497l2.335-3.49
		l3.104,0.779l-2.319-5.439l0.397-5.826l-3.891,3.877l-3.104-1.559l4.285-6.202l-1.544-6.216l-2.717-0.783l-0.384-3.498
		l-3.104-0.778l-5.353,0.166l-2.717-3.108l2.717-4.271l-0.774-4.272l1.939-1.163l1.554-14.76l-1.164-2.328l4.631-2.884l7.774-5.035
		l2.715,2.335l-1.554,1.163l0.771,2.716l4.658,1.177l0.787-5.435l1.555-1.939l2.719,0.004l2.723-1.546c0,0,5.438-1.159,6.602-1.154
		c1.164,0.002,6.602,0.399,6.602,0.399l6.607-3.483l6.217-0.767l2.331-2.327l5.433,3.118l6.217-1.934l1.558-3.104l9.325-2.7
		l-2.325-3.11l3.114-3.491l2.729-5.818l-6.21-3.118l2.729-5.044l1.171-3.104l3.489,2.725l6.605-1.542l-5.802-13.213l0.394-3.884
		l5.438,0.011l3.111-3.103l5.055-3.485l-0.77-4.271l12.443-8.138l-0.771-3.493l8.945-8.14l-0.369-11.263l-1.938-3.112l2.337-3.1
		l5.827-0.767l2.718,0.783l4.269,0.004l2.715,2.721l2.709,4.668l3.877,4.281l5.822,0.006l5.064-6.592l3.489,1.559l4.66-0.38
		l3.892-4.263l-1.152-7.381l2.719,0.394l6.621-10.862l-3.104-1.56l-0.769-4.273l12.826-7.743l1.953-6.598l3.489,1.558l3.108,0.004
		l1.95-2.71l-1.939-2.336l1.949-3.881l-0.379-5.05l1.168-1.939l-3.098-5.441l-1.158-5.05l4.276-1.546L505.875,522.963z
		 M241.104,469.218l4.276,1.554l3.11,2.723l4.274,0.779l0.781-2.331l-4.278-3.892l-4.277-0.777h-2.718l0.387-1.941l-3.497,1.553
		l-2.331-1.165l1.552-1.552l-1.552-0.781l-3.112,0.781l-0.777,2.717l4.274,3.887L241.104,469.218z"/>
	<path id="4" fill="#D1D3D4" d="M794.119,349.958l0.791-5.434l9.71-1.923l-2.709-5.833l-3.1-3.112l-3.108-0.392l-2.32-3.498l2.341-7.374
		l-4.646-7.39l-5.826-0.397l-0.765-6.214l-3.114,3.879l-9.307-7.396l-5.816-5.835l-7.385,4.65l-5.814-5.837l-6.217,1.152
		l-3.497,2.711l-4.273-0.007l-3.487-3.501l0.397-5.046l-2.329-1.561l-3.501,2.715l-1.562,6.212l-4.277,3.099l-0.379-5.438
		l-1.941-0.392l-1.167,2.717l-0.396,3.881l-1.171,2.719l-3.109,1.548l-0.781,2.715l-3.106-0.004l-2.335,2.324l-1.561,4.271
		l3.492,2.335l-4.285,7.758l-3.108-0.004l-3.107,1.158l-1.942-0.783l-6.602,1.156l-3.504,3.878l-0.004,3.883l-4.662,0.769
		l-3.887,3.099l-1.94-1.557l1.561-3.879l-5.04-5.058l-1.172,3.493L659.42,322.93c0,0,3.504-6.206,3.12-8.927
		c-0.384-2.719-3.1-2.331-3.1-2.331l-0.77-4.664l-2.335,2.714l-2.325-2.335l0.006-5.435l-3.104-1.171l-1.936-3.11l-5.05-0.397
		l-3.879-1.173l-5.441,1.546l-1.173,5.046l-8.149-0.789l-5.829,0.765l-1.561,3.104l-1.941-0.007l-3.104-1.556l-5.827,0.377
		l-10.879,3.09c0,0-1.552-0.394-2.71-1.945c-1.162-1.559,0.006-5.05,0.006-5.05l-3.493-0.006l0.397-4.66l-3.108,0.381l-2.325-4.272
		l0.011-4.274l-2.329-2.331l-4.662,1.932l0.002-1.553l-2.715-2.335l-1.941,1.55l-2.327-1.556l2.725-4.656l-7.744-12.438
		l-4.666,2.706l-1.546-4.662l-1.939-0.39l-4.279,3.099l-3.105-0.392l-3.884,1.156l-5.041-3.114l-3.498,1.158l-0.397,3.883
		l-2.729,5.819l3.104,1.17L537.169,280l-4.674,7.371l4.265,3.891l0.772,2.721l5.811,7.389l-0.396,5.046l-8.945,6.976l1.551,2.721
		l1.941,0.78l-0.783,2.327l-1.169,4.271l-6.605,1.156l-3.881-1.173l-1.559,1.548l1.154,5.825l3.882,1.172l3.491,4.279l1.538,7.381
		l-2.725,2.435l-3.498,3.768l4.252,10.882l-2.345,8.15l5.814,6.223l2.702,8.937l2.696,12.433l2.325,4.276l-1.566,5.046l-0.789,7.765
		l-3.112,3.487l1.55,3.887l3.297,2.646l5.036,4.671l6.999-3.098l3.1,2.339l3.112-2.715l4.656,3.114l-1.173,3.494l1.553,0.004
		l2.335-2.327l4.272-0.38l-1.158-4.664l4.792-1.363l2.197,3.705l3.096,2.725l3.099,6.22l1.552,0.779l0.375,6.989l13.587,3.129
		l1.55,1.943l-0.018,9.71l0.772,3.497l-0.778,2.719l-3.886-1.172l-0.006,3.493l-1.938-0.002l-0.394,1.941l1.544,3.498l1.939,3.497
		c0,0,9.32,0.794,12.425,0.796c3.104,0.008,6.602-0.761,6.602-0.761l2.325,3.109l3.497-0.772l1.169-2.715l2.715,0.779l0.782-2.327
		l0.4-6.602l8.157-0.763l3.104-0.773l1.939,2.335l5.441-4.258l3.881,2.725l-1.945,3.1l0.379,4.275l2.715,1.943l3.494,0.783
		l1.955-7.373l3.498-3.877l0.397-3.108l-0.772-3.108l5.078-15.522l3.493-1.158l2.329,1.557l8.156-1.538l1.552,2.331l6.983,3.508
		l1.158,3.883l3.493,0.783l0.384,3.108l2.715,2.721l1.941-1.158l3.493,1.56l1.159,2.331l-1.944,2.325l5.046,0.785l5.06-5.814
		l4.271,0.006l1.936,5.054l8.924,1.181l4.671-5.039l4.67-6.985l3.892-4.65l0.399-5.435l5.058-5.044l0.394-2.719l-2.324-2.331
		l7.784-10.858l13.997-10.462l0.791-8.154l-0.964-4.193l14.774-8.13l0.006-4.271l8.168-7.754l12.467-22.114l-9.32-0.403
		L794.119,349.958z"/>
	<path id="10" fill="#D1D3D4" d="M606.969,112.75l-0.38-3.106l-5.045-2.725l5.06-5.431l-1.932-6.604l-3.104-0.781l-0.768-6.993l3.506-3.877
		l-0.776-1.165l-2.721,0.383l-2.321-5.052l-3.875-3.891l-2.717,0.383l-12.429-0.412l-2.339,3.881l-2.715-1.945l-0.371-7.769
		l-3.875-5.833l-3.493-1.558l-3.108,1.548l-1.163-1.554l1.946-1.55l0.779-1.554l-4.658-0.783l-5.447,4.648l-6.588-6.612
		l-1.139-14.758l-6.202-8.166l-5.826,0.765l-8.164,5.812l-1.559,2.329l-8.92-6.23l-1.546-4.662l-3.88-2.335l-3.107,1.546
		l-1.932-6.605l1.173-4.269l0.787-3.883L501.146,5l-15.157,6.576l-8.961,2.792l-1.53,0.298L458.404,15.8l-8.933,3.09l-3.114,4.656
		l-3.887,1.546l-0.798,12.424l-0.783,3.881l1.528,13.597l1.936,3.108l-1.946,2.716l-0.793,10.483l2.711,3.11l-1.944,2.329
		l-0.787,7.375l4.643,7.389l-6.983-1.956l-8.955,13.964l8.147,4.285l5.429,3.504l7.356,13.605l2.312,8.547l-6.998,5.425l1.553,1.556
		l3.107-1.159l0.382,2.717c0,0-3.5,3.877-3.114,5.043s1.546,3.887,1.546,3.887l2.717,1.558l-1.562,4.658l2.715,1.557l-0.779,3.883
		l-0.397,3.494l-1.941,1.548l5.809,7.003l1.546,4.273l-1.557,2.714l-3.497,0.773l-0.396,4.658l2.327,2.723l10.094,0.403l9.716-4.642
		l5.818,5.06l6.601,0.399l1.947-2.714l5.438,0.008l6.208,3.116l-0.394,2.719l2.325,1.559l3.891-2.713l1.546,3.11l6.215-0.766
		l3.491,3.11l3.888-3.098l1.941,1.167l4.271-1.155l0.772,3.494l1.938,0.781l1.949-3.494l1.552,0.392l5.056-4.261l3.103,2.721
		l1.154,5.831l4.261,5.831l2.717,1.171l3.485,6.218l3.493-0.381l8.144,7.391l2.731-7.76l4.668-3.101l0.783-5.048l1.945-1.938
		l-1.929-6.993l-2.715-1.169l0.004-3.885l3.11-1.936l3.495,1.171l1.559-3.882l-3.104-1.943l-3.094-6.997l1.562-5.046l8.547-1.927
		l2.719,0.394l1.165-1.553l-1.548-1.556l2.72-2.325l7.765,1.956l1.561-3.492l-1.942-1.558l0.015-7.767l0.401-6.989l0.009-5.437
		l3.493,0.783l7.793-13.966l0.403-9.318l0.779-2.329L606.969,112.75z"/>
	<path id="13" fill="#D1D3D4" d="M862.506,663.769l-3.881-0.783l-4.274,1.55l-4.662,0.766l-3.502,3.104l-10.483-1.572l-7.764-1.566
		l-5.04-4.282l-5.818-3.506l-1.154-5.05l-7.759-7.002l0.011-5.05l3.885-0.769l-0.769-3.108l-4.269-2.725l-0.77-5.439l5.064-8.147
		l0.397-5.433l3.11-2.323l3.885,1.168l1.165-2.328l-6.584-8.941l-3.102-4.666l-10.092-1.568l-4.658-2.729l-2.706-4.275l1.175-6.602
		l-4.656-1.562l-3.489-4.276l0.247-1.41l-4.125-1.704l-4.655-1.173l-2.728,2.327l1.555,3.108l-3.506,2.71l-3.877-1.558l-2.325-4.277
		l-6.212-0.787l-1.562,5.046l-0.394,4.66l2.715,1.557l3.495,0.006l1.934,4.668l0.759,8.929l-12.814-0.02l-13.988,5.798l1.938,2.725
		l-6.607,5.035l-2.719-2.725l-1.952,5.823l1.941,1.166l0.775,1.557l-7.774,4.259l-4.269-1.562l-1.945,1.552l-0.011,6.212
		l-2.343,5.823l1.55,3.108l-1.945,3.1l-2.329-0.39l-5.827-0.785l-0.392,3.494l2.325,2.335l-3.496-0.008l-0.006,4.66l3.1,2.723
		l10.873,0.795l0.379,4.271l3.494,1.95l-0.013,6.212l-2.719,1.552l2.711,2.721l-2.717,0.384l-2.325-2.723l-3.116,4.269l-2.721,2.323
		l-4.664-0.007l-2.32-3.109l-2.327-0.394l-1.939-3.886l-5.434-0.785l-1.552-1.171l-6.602-0.01l-1.938-1.558l1.177-5.438l-4.278,1.55
		l-6.598-0.791l-6.999,5.037l-5.825-0.397l-1.932-5.054l-6.212-1.562l-1.95,3.882l1.551,4.662l4.647,5.443l0.373,6.991l8.913,10.891
		l-7.554,8.733l-2.173,2.51l-3.107,1.546l0.763,8.934l-3.897,8.147l-6.993,0.379l-4.673,8.145l0.773,3.107l-3.502,1.936
		l-4.281,4.267l-5.049,1.544l-0.587,2.911l2.911-0.578l0.386,1.946l-0.586,1.744l5.242,0.787l4.078-0.383l4.856-0.77l1.359,0.197
		l-0.194-1.163l-1.553-0.394l-1.748-0.004l-0.574-3.493l2.141-2.522l0.394-2.329l3.107-1.74l5.243,0.203l2.714,1.556l-0.004,1.941
		l-1.169,2.719l0.388,0.97l0.968,1.361l-0.586,1.745l-2.524,0.772l-2.525-0.002l-2.13-0.978l-0.587,0.388l-0.392,1.359l1.749,0.778
		l3.295,1.559l-0.394,3.885l0.966,2.914l5.63,0.983l4.272-1.354l2.137-0.576l3.301,0.196l3.297,3.114l1.359-1.162l-1.355-1.363
		l-3.877-3.5l-1.939-1.945l1.748-0.386l2.713,2.917l4.656,2.922l0.196-1.749l-2.521-1.556l-1.355-1.946l-1.744-1.751l-1.357-1.746
		l-0.188-1.165l1.552-0.388l1.938,1.557l1.171-0.58l-0.777-2.139l1.167,0.004l2.324,2.526l3.301,0.396l0.773,0.97l1.938,2.917
		l3.498-1.74l-0.187-3.688l-2.135-0.976l-0.192-1.942l0.207-6.409l2.134,1.559l4.271,0.979l2.707,5.635l2.525-2.133l2.719,1.169
		l-0.394,3.498l-3.309,2.904l-3.687,0.577l-4.275,0.185l-3.887,1.935l-0.195,2.526l2.715,1.559l7.377,0.206l6.991-1.152l2.915-2.716
		l3.882,2.533l0.381,3.302l0.58,2.718l0.966,2.139l-1.945,1.745l1.939,2.138l6.991-0.379l6.405,0.791l4.074,2.532l3.305-1.16
		l1.744,0.196l1.936,2.723l8.732,3.12l-0.779,2.329l0.19,2.524l2.521,0.783l2.919-2.521l2.522,0.392l0.389-0.968l-1.939-0.394
		l-0.965-2.138l1.941-0.773l3.104,0.976l3.496,0.591l1.162,1.361l2.52,1.166l1.557-1.162l1.556-0.19l0.77,3.303l-1.361,1.164
		l0.582,1.167l2.734-0.572l0.088,0.51l4.47,0.008l2.335-1.943l-1.163-1.361l-1.556,0.97l-2.528,0.771l-0.787,0.177l-0.095-0.689
		l-1.167-0.197l-0.386-0.97l0.394-2.135l1.555-2.329l3.885-0.769l2.721-0.381l5.044,2.725l3.108-1.159l-1.157-4.274l1.946-1.938
		l7.376-0.377l5.831-3.483l3.104,1.168l3.497-1.934l0.007-3.107l-1.938-1.557l2.335-2.715l-0.384-3.107l-6.216,1.156l-0.386-1.557
		l5.054-3.098l5.839-8.919l5.827,0.007l4.666-3.099l1.559-3.489l1.556-1.552l0.004-2.719l0.394-3.104l4.277,0.006l2.716-0.381
		l2.715,0.779l1.556-1.939l0.015-7.765l3.502-2.325l4.662-2.71l3.108,0.394l0.778-1.94l3.108-1.552l0.004-2.715l1.173-2.326
		l3.108-1.159l1.162,1.555l6.995-4.648l-1.152-5.826l-3.877-5.057l1.559-2.329l1.941-0.383l1.561-2.715l6.611-6.592l1.179-8.153
		L862.506,663.769z M783.02,776.566l-2.918,1.55l0.19,1.359l4.281-0.576l-0.194-1.746L783.02,776.566z M786.521,774.239
		l-1.361,2.524l0.578,0.39l1.171-0.386l2.528-2.133v-1.361l-0.773-0.196L786.521,774.239z M673.396,658.782l3.889-1.936l3.108-3.101
		l0.783-2.329l-2.719-1.556l-3.104-1.559l-3.104,0.77l-1.559,3.493l-1.563,4.267l1.162,1.943L673.396,658.782z"/>
	<polyline fill="none" stroke="#D1D3D4" stroke-miterlimit="10" points="6,315 126,384 126,894 	"/>
	<path id="16" fill="#D1D3D4" d="M82.675,868.959l-0.163-0.558l-0.543-0.447l0.38-0.224l0.326,0.447l0.381-0.726l0.108-0.391l-0.271-0.559
		l-0.271-0.56l-0.435,0.059l-0.272-0.671v-0.949l-0.38-0.781l-0.435-0.167l-0.164,0.502l-0.27-0.223l0.163-0.67l-0.218-0.392
		l0.272-0.223l0.434,0.335l0.218-0.112l0.217-0.949l-0.217-0.224l-0.325,0.392l-0.544-0.056l0.054-0.39h0.435l0.327-0.391
		l-0.271-0.503l-0.49-0.559l-0.325,0.392l-0.49,0.056l0.599-0.727l0.271-0.67l0.489-0.782v-0.502l-1.032,1.06l0.017-0.537
		l-0.508,0.371l0.164-0.726l-0.435,0.224l0.108-0.447l-0.707-0.169l0.38-0.501l0.38-0.391l-0.271-0.223l0.217-0.335l-0.599-0.446
		l-0.38-0.56c0,0-0.652,0.503-0.815,0.56c-0.164,0.055-0.598-0.391-0.598-0.391l-0.38-0.613l0.38-0.615l-0.598-0.391l-0.217-0.56
		l0.488-0.669l-0.488-0.112l-0.545,0.112l-0.543,0.502l-0.544-0.391l-0.707-0.056l0.381-1.06l0.38-0.224l-0.164-0.28l-0.054-0.613
		l0.489-0.391l-0.599,0.11l-0.435-0.166l-0.435-0.446l0.164-0.447l0.652,0.278l0.434-0.278l-0.054-0.502l0.38,0.111l0.326,0.055
		l0.109-1.003l-0.327-0.391l-0.489,0.391l-0.327,0.558l-0.489-0.224l0.055-0.503l-0.598-0.167l-0.217,0.559l-0.489-0.169
		l-0.49-0.109l-0.326,0.838l-0.599,0.444l-0.598-0.333l-0.652-0.894l-0.38-0.447l0.055-0.558l0.434-0.614l0.272-0.447l0.343,0.354
		l0.146,0.224l0.761-0.111l-0.109-0.224l-0.325-0.075l-0.327-0.559l0.707,0.169l0.76-0.56l0.418,0.242l0.29-0.633l0.598-0.111
		l-0.054-0.781l-0.543,0.503l-0.654-1.005v-0.894l-0.489,0.168l-0.108,0.391l-0.597,0.279l-0.545,0.111l-0.163-0.559l0.381-0.501
		l0.38-0.503l-0.815,0.167l-0.272,0.446l-0.653-0.502l-0.272-0.558v-0.727l0.598-0.111l-0.706-0.446l0.162-0.503l0.49-0.223
		l0.163-0.559l1.034-0.111l0.489,0.279l1.033,0.558l0.164,0.67l0.381,0.167l0.434-0.334l0.327,0.334l0.544-0.278l0.271,0.278v-0.725
		l-0.326-0.057l-0.381-0.223l0.381-0.278l0.217-0.392l0.326,0.056v-0.502l-0.543-0.614l0.38-0.503l0.708-0.391l0.272,0.782
		l0.217,0.279l0.616-0.038l0.29-0.261l-0.634-0.315l0.434-0.559l-0.488-0.67l-0.381-0.224l-0.434,0.057l-0.327-0.503l-0.381,0.67
		l-0.652,0.447l-0.761,0.613l-0.326-0.334l-0.381,0.39l-0.217,0.447l-0.761,0.445l-0.435-0.502l-0.924-0.056l-0.109,0.558
		l-1.032,0.169l-0.49,1.004l-0.272,0.726l-0.164,0.446l-0.598-0.446v-0.837l-0.652-0.837l0.272-0.335l-0.816-0.67l-0.109-0.559
		l-0.87-0.559l0.327-0.391l-0.924-0.335l0.163-0.558l-0.326-0.112l-0.436,0.112l-0.272-0.67l-0.652-0.671l0.218-1.004l-0.218,0.111
		l-0.435-0.278l-0.164,0.502l-0.814-0.726l-0.164-0.949l0.054-0.279h-0.489l-0.381,0.391l-0.163-0.111l0.055-0.67l0.217-0.391
		h-0.924l-0.435-0.446l-1.087,0.223l-0.598-0.056l-0.925-1.004l-0.87-0.224l-0.435-0.559l-0.489-0.056l-1.143-1.061l-0.217-0.446
		l-0.598,0.056l-1.087-0.67l-0.816-0.056l-0.598-0.446l-0.761-0.057l-0.653-0.391l-0.162,0.224l-0.599-0.224L47.5,824.75
		l-1.25,0.224l-1.196,0.335l-1.142,0.558l-0.924,0.559l-0.816,0.726l-0.381,0.726l-0.434,0.837l-0.489,0.67l0.055,0.837
		l-0.435,0.503l0.38,0.781l-0.272,0.335l0.381,1.228l0.489,0.838l0.489,1.117l0.708,0.391l0.489,0.167l0.271,0.391l0.653,1.061
		l0.761,0.782l0.707,0.781l0.218,0.949l-0.218,1.339l-0.326,1.396l0.054,1.172l0.435,1.283l0.761,1.062l0.544,0.893l0.598,1.172
		l0.435,0.781l0.272,0.335l0.217,0.67l0.761,0.168l0.436,0.391v0.669l0.979,0.335l1.414,0.391l0.87,0.838l0.924,1.061l0.543,1.173
		l0.543,0.111l0.815-0.502l0.979,0.111l0.272,0.445l0.217-0.277l0.599-0.279l0.271,0.837l0.272-0.392l1.033,0.392l0.707-0.111
		l-0.326-0.614v-0.613l0.761-0.057l0.489-0.39l0.544,0.39l-0.055,0.446l0.381,0.112l0.108,0.892l-0.598,0.448v0.446l0.543,0.167
		l0.436,0.614l0.38,0.112l-0.38,0.893l0.272,0.279v0.613l0.326-0.111l0.869,0.056l0.599,0.335l0.38,0.559l-0.272,0.67l-0.652,0.224
		L63.43,861.2l-0.055-0.559h-0.543l-0.108,0.559l-0.435,0.225l-0.544-0.279l-0.38,0.391l-0.598-0.225v-0.502l-0.924,0.056
		l-0.272-0.279l0.543-0.725l-0.271-0.78l-0.436,0.612l-0.435-0.056l-0.435-0.781l-0.054,0.67l-0.49,0.167l-0.489,0.782l-0.598,0.39
		l-0.815-0.168l-0.435,0.614l-0.652,0.78l-0.543,0.504l-0.218,0.614l-0.218,0.669l-0.326,0.614l0.489,0.279l0.815-0.224l0.38,0.336
		v0.614l-0.38,0.112l-0.163,0.444l0.543,0.112l0.435,0.112l-0.054,1.284l-0.272,0.279l0.218,0.781l0.76,0.167l0.544,0.224l0.38,0.78
		l0.707,0.28l0.816-0.168l0.38-0.445l0.109-0.671l0.652-0.614l0.925-0.391l0.76-0.111l1.034,0.335l0.543,0.334l0.109-0.893
		l0.543,0.278l0.109,0.671l0.87,0.391l0.108-0.502l-0.108-0.614l0.598,0.335l0.38-0.836l0.326,0.669v0.613l0.871,0.111l0.054-0.391
		l0.435-0.111l0.816,0.67l1.141,0.056l0.979,0.392l1.196-0.447l0.652-0.335l0.218,0.279l0.381-0.279l0.217,0.447l-0.217,0.502
		l1.087,1.172l0.871-0.279l0.054-0.557l0.761-0.728l-0.053-0.278l0.652,0.056v-0.615l0.76-0.055l0.38,0.278l0.436,0.728
		l-0.544,0.502l0.381,0.279l-0.925,0.055l0.164,0.782l-0.382-0.111l-0.271,0.279l-0.652-0.449l0.489,0.895l-0.326,0.614v0.67
		l-0.924,1.004l0.598,0.614l0.38,0.336l-0.326,0.726l0.434-0.112l0.652,0.503l-0.163,0.502l0.598-0.055l0.653,0.224l0.707-0.058
		l0.489-0.668l0.382-0.894l0.326-0.337l0.544,0.337l0.271-0.279l-0.544-0.503l-0.653-0.558l0.109-0.392l0.652-0.168l0.271,0.447
		h0.381l0.216-0.502l-0.162-0.672l0.598-0.055l0.489-0.336l0.055-1.114l0.218-0.839l0.652-0.277l0.434-0.224L82.675,868.959z
		 M75.934,838.706v-0.504l-0.435-0.11l0.109,0.445L75.934,838.706z M75.824,847.301l0.164-0.781l-0.599,0.501L75.824,847.301z
		 M74.956,850.818l0.217,0.559l0.381-0.28l-0.272-0.391L74.956,850.818z M78.217,852.381l-0.055-0.503l-0.489,0.391l-0.327,0.168
		l0.435,0.205L78.217,852.381z M79.63,851.767l0.108-0.334l-0.434-0.111l-0.327,0.67l0.382,0.111L79.63,851.767z M78.326,853.274
		l0.489,0.223l0.325-0.166l-0.271-0.448l-0.436-0.111l-0.544,0.726L78.326,853.274z M81.261,872.253l-0.053,0.279l0.651,0.278
		l-0.108-0.558H81.261z M81.098,874.262l0.326,0.169l0.218-0.448l-0.434,0.058L81.098,874.262z M80.827,874.989l0.435,0.055
		l0.054-0.39l-0.434-0.112L80.827,874.989z M56.145,860.307l-0.164-0.279l-0.38,0.279l0.271,0.391L56.145,860.307z M76.333,844.454
		l-0.725-0.187l-0.072-0.26l-0.508-0.037l-0.144,0.223l-0.218-0.223l-0.291,0.335l0.508,0.223l-0.073,0.298l0.253,0.036l0.145-0.222
		c0,0,0.218,0.111,0.327,0.111c0.108,0,0.652-0.038,0.652-0.038L76.333,844.454z M75.824,844.938l-0.216,0.037l-0.037,0.224
		l0.181,0.26l0.218-0.222L75.824,844.938z M72.998,845.57l0.109-0.223l-0.109-0.225l-0.181,0.262L72.998,845.57z M73.795,845.348
		l0.436-0.037l0.035-0.225l-0.326-0.111l-0.254,0.148L73.795,845.348z M77.674,853.777l0.054,0.112l0.145-0.058l-0.018-0.111
		l-0.091-0.056L77.674,853.777z"/>
	<path id="14" fill="#D1D3D4" d="M86.77,743.123c-0.399-0.416-0.937-0.815-1.179-1.356c-0.1-0.225-0.15-0.446-0.144-0.692
		c0.007-0.261,0.259-0.573,0.258-0.772c-0.005-0.673-0.445,0.026-0.728-0.41c-0.089-0.137,0.288-1.194-0.262-0.773
		c-0.067-0.563-0.032-0.819-0.392-1.229c-0.25-0.283-0.602-0.671-0.91-0.93c-0.395-0.332-1.259-0.921-1.728-0.416
		c-0.579,0.624,0.229,2.133,0.227,2.845c-0.003,1.411-1.366,1.38-2.122,2.206c-0.227-0.513,0.506-0.58,0.784-0.745
		c0.448-0.267,0.58-0.536,0.518-1.048c-0.158-1.293-0.562-2.594-1.159-3.761c-0.28-0.548-0.648-1.018-1.121-1.411
		c-0.445-0.371-1.055-0.551-1.471-0.933c-0.314-0.288-0.429-0.965-0.956-0.971c-0.4-0.005-0.545,0.555-1,0.421
		c0.371-0.445,0.706-0.716,0.28-1.265c-0.417-0.536-1.08-0.601-1.481-0.047c-0.289,0.398-0.02,0.501-0.658,0.583
		c-0.387,0.05-1.294,0.098-1.597-0.187c0.396-0.171,0.749-0.331,1.143-0.463c0.361-0.12,0.48-0.012,0.325-0.522
		c-0.143-0.47-1.01-1.441-1.535-1.459c-0.021,0.604-0.641,0.064-0.833-0.101c-0.453-0.389-0.93-0.699-1.401-1.065
		c-0.521-0.404-0.929-0.942-1.432-1.371c-0.505-0.43-1.045-0.793-1.407-1.361c-0.328-0.514-0.486-0.899-1.076-1.179
		c-0.611-0.29-1.296-0.382-1.909-0.688c-0.124-0.062-2.353-1.396-1.986-0.479c-0.94-0.063-1.725-0.339-2.687-0.299
		c-0.88,0.035-1.576-0.373-2.419-0.522c-0.925-0.164-1.816-0.245-2.706-0.589c-0.891-0.343-1.614-0.89-2.411-1.395
		c-0.591-0.375-1.271-0.593-1.891-0.961c-0.647-0.385-1.399-0.776-2.094-1.057c-0.663-0.268-0.913,0.112-0.274,0.484
		c0.467,0.273,1.306,0.26,1.403,0.943c-0.825-0.107-1.673-1.154-2.542-0.916c-0.511,0.14-0.571,0.741-0.679,1.188
		c-0.204,0.84-0.334,1.701-0.671,2.502c-0.578,1.372-1.063,2.53-2.347,3.36c-1.231,0.796-1.933,1.707-2.682,2.927
		c-0.37,0.604-0.919,1.057-1.314,1.64c-0.486,0.717-0.667,1.582-0.678,2.437c-0.009,0.721,0.039,1.544,0.169,2.254
		c0.116,0.631,0.643,0.861,0.726,1.52c0.079,0.63,0.342,1.169,0.438,1.796c0.117,0.771,0.189,1.608,0.221,2.388
		c0.033,0.807,0.229,1.261,0.521,1.99c0.258,0.646,0.084,1.276,0.236,1.931c0.163,0.704,0.657,0.548,1.033,0.988
		c0.412,0.481,0.052,0.986,0.024,1.463c-0.032,0.541,0.512,0.628,0.824,1.023c0.503,0.639,0.869,1.205,1.454,1.798
		c0.37,0.375,0.636,0.885,1.083,1.146c0.55,0.321,1.053,0.298,1.376,0.943c0.242,0.482,0.294,1.293,0.787,1.629
		c0.543,0.371,1.002-0.352,1.408,0.365c0.294,0.52-0.022,0.662-0.11,1.113c-0.052,0.268,0.115,0.495,0.145,0.75
		c0.044,0.38-0.042,0.693-0.187,1.041c-0.142,0.339-0.369,0.626-0.523,0.956c-0.162,0.347-0.166,0.687-0.268,1.04
		c-0.19,0.658-0.691,1.042-1.187,1.504c-0.516,0.481-1.258,0.461-1.446,1.304c-0.124,0.554,0.058,0.422,0.377,0.694
		c0.194,0.167,0.288,0.048,0.291,0.344c0.002,0.251-0.305,0.295-0.327,0.456c-0.048,0.347,0.155,0.291,0.261,0.515
		c0.125,0.267,0.113,0.575,0.115,0.902c0.002,0.391-0.087,0.879,0.055,1.249c0.085,0.224,0.377,0.425,0.393,0.654
		c0.024,0.346-0.294,0.329-0.409,0.538c-0.132,0.239,0,0.417-0.057,0.644c-0.071,0.28-0.319,0.392-0.461,0.623
		c-0.21,0.342-0.068,0.68-0.164,1.041c-0.182,0.689-0.833,1.104-1.042,1.801c-0.184,0.612-0.083,1.399-0.455,1.946
		c-0.328,0.485-1.031,0.669-1.57,0.807c-0.939,0.24-0.432,0.34-0.812,1.036c-0.343,0.628-1.117-0.01-1.517,0.555
		c0.47,0.29,0.884,0.499,1.232,0.921c0.07,0.084,0.038,0.196,0.184,0.322c0.197,0.17,0.565,0.174,0.806,0.242
		c1.189,0.338,1.877,1.394,3.188,1.414c0.57,0.009,1.245-0.174,1.797,0.012c0.586,0.197,0.983,0.856,1.618,0.947
		c0.639,0.091,0.622-0.271,0.73-0.717c0.164-0.676,0.476-0.594,1.124-0.705c0.617-0.105,1.03-0.422,1.522-0.799
		c0.472-0.361,1.065-0.643,1.49-1.055c0.496-0.481,0.862-1.929,1.853-1.223c0.315,0.225,0.11,0.451,0.252,0.808
		c0.16,0.403,0.62,0.465,1.028,0.548c0.617,0.124,0.519,0.011,0.792-0.567c0.192-0.404,0.374-0.738,0.866-0.729
		c0.708,0.016,1.035,0.67,1.306,1.211c0.322,0.646,0.447,0.721,1.052,1.004c0.698,0.326,0.449,0.804,0.138,1.38
		c-0.36,0.665-0.523,1.113-0.406,1.871c1.195-0.229,2.155-0.372,3.201-1.006c0.556-0.337,0.936-0.354,1.568-0.378
		c0.705-0.028,0.993-0.267,1.612-0.521c0.808-0.331,1.94-0.021,2.68-0.514c0.438-0.292,0.378-0.776,0.637-1.18
		c0.157-0.244,0.355-0.257,0.534-0.454c0.102-0.111,0.059-0.278,0.181-0.399c0.552-0.544,1.51-0.709,2.194-1.051
		c0.318-0.158,0.669-0.154,0.85-0.461c0.215-0.365-0.068-0.822,0.264-1.196c0.203-0.229,0.51-0.43,0.723-0.613
		c0.268-0.229,0.44-0.402,0.679-0.667c0.212-0.234,0.652-0.489,0.542-0.908c-0.104-0.396-0.645-0.502-0.776-0.906
		c-0.187-0.572-0.001-0.226,0.174-0.477c0.062-0.089,0.266-0.122,0.352-0.25c0.093-0.138,0.072-0.409,0.089-0.563
		c0.1-0.909,0.338-1.757,0.546-2.648c0.117-0.502,0.205-0.835,0.617-1.139c0.231-0.17,0.606-0.175,0.471-0.584
		c-0.096-0.293-0.447-0.211-0.463-0.562c-0.021-0.47,0.587-1.203,0.692-1.693c0.106-0.498,0.018-0.529-0.197-0.9
		c-0.181-0.313-0.267-0.191-0.185-0.563c0.09-0.407,0.838-1.596,1.263-1.771c0.224-0.093,0.374,0.143,0.6,0.005
		c0.279-0.171,0.43-1.127,0.555-1.422c0.519-1.227,1.102-2.405,1.51-3.675c0.252-0.782,0.803-1.355,1.084-2.105
		c0.15-0.4,0.053-0.946,0.279-1.309c0.275-0.44,0.774-0.376,1.141-0.7c0.404-0.356,0.583-0.964,0.931-1.377
		c0.727-0.863,1.277-1.9,2.102-2.665c0.448-0.415,0.455-0.559,0.46-1.202C86.712,744.456,87.028,743.696,86.77,743.123
		C85.972,742.292,86.988,743.607,86.77,743.123z"/>
	<path id="" fill="#D1D3D4" d="M72.408,620.97l-2.679-0.264l-1.739-0.802l-1.479-2.281l-1.595-0.13l-1.214,2.008l-3.213-0.538
		l-3.602-2.406l-2.549-4.96l-2.536-1.997l0.13-3.083h-1.489l-0.26,1.07l-0.672,1.475l-1.335,0.538l-1.608,1.2l-0.264,1.34
		l-0.26,1.469l-1.214,0.14l-0.274-0.673l-1.335,0.27l-2.405,4.552l0.389,0.26l1.339-0.135l0.816,1.613l-2.405,1.335l-0.538,1.873
		l1.729,1.475l0.672-0.803l1.613,0.403l2.267,3.343l0.936-0.135l1.08-0.662l1.868,1.603l1.35-0.268l0.797,1.603l-1.076,1.614v1.608
		l0.951,0.523l-0.403,2.4l0.797,3.361v1.076l1.873,1.604l-0.672,0.932l-1.873,0.278l-0.807-0.537l-1.195,0.932l3.74,4.148
		l2.934,3.347l5.383,1.858l-0.951,4.562l-0.677,3.227l-1.062,0.654l-3.615-1.6l-3.472-2.003l-0.538-1.469l-0.667-2.555l-1.339-0.937
		l-2.958,0.807l0.145,1.733l2.266,3.76l1.738,0.803l0.149,2.271l-0.956,1.475l-1.863,2.007l4.547,2.545l0.145,2.008l2.804,1.335
		l0.523,1.2l2.689-1.2l1.2,0.807l0.548,1.2L62.9,672.1l0.802-2.266l1.349-0.951l1.997,2.699l1.21-1.206l2.012-0.542l0.807-1.738
		l-4.288-3.073l-0.278-1.354l-1.326-1.594l1.076-1.479h1.061l0.533-0.802l-1.066-1.604l1.738-1.34l1.743,0.125l1.066-0.528
		l-0.12-2.685l1.066-2.28l2.286-1.6l-0.144-1.07l-3.746-4.956l-0.134-4.413l1.738-3.347l2.286-3.213l3.731-2.415v-5.08l-2.535-3.078
		L72.408,620.97z M37.868,601.022l-0.807,1.873l0.13,0.946l1.488,0.398l1.071-0.807l-0.274-1.604L37.868,601.022z M89.022,625.522
		l-0.543-0.135l-1.743,2.142l-1.469,0.537l-1.085,2.401l0.677,2.814l1.752,1.479l2.132-0.807l0.682-2.685l1.854-0.931
		L89.022,625.522z"/>
	<path id="17" fill="#D1D3D4" d="M93.765,533.438c-0.029-0.359-0.062-0.715-0.13-1.069c-0.026-0.14-0.069-0.276-0.044-0.42
		c0.023-0.129,0.121-0.241,0.074-0.378c-0.044-0.127-0.177-0.191-0.222-0.328c-0.039-0.116-0.029-0.229-0.087-0.343
		c-0.139-0.271-0.36-0.383-0.442-0.699c-0.066-0.257-0.082-0.478-0.299-0.655c-0.21-0.172-0.472-0.289-0.736-0.324
		c-0.291-0.038-0.507-0.086-0.733-0.294c-0.215-0.199-0.349-0.472-0.557-0.681c-0.197-0.2-0.43-0.385-0.696-0.481
		c-0.3-0.108-0.544-0.017-0.847-0.004c-0.646,0.028-0.935-0.667-1.207-1.148c-0.317-0.562-0.648-0.932-1.18-1.292
		c-0.509-0.346-0.587-0.949-0.929-1.428c-0.361-0.506-0.843-0.924-1.287-1.354c-0.222-0.216-0.499-0.429-0.658-0.697
		c-0.149-0.254-0.124-0.555-0.301-0.801c-0.161-0.223-0.334-0.369-0.309-0.667c0.023-0.268,0.196-0.493,0.032-0.754
		c-0.132-0.209-0.384-0.328-0.536-0.528c-0.191-0.253-0.314-0.555-0.484-0.821c-0.153-0.239-0.329-0.447-0.586-0.574
		c-0.251-0.124-0.546-0.146-0.763-0.333c-0.34-0.295-0.524-0.938-0.649-1.355c-0.188-0.634-0.128-1.314-0.12-1.966
		c0.009-0.713-0.002-1.419-0.21-2.106c-0.398-1.314-1.163-2.588-2.201-3.495c-0.268-0.234-0.555-0.446-0.759-0.743
		c-0.178-0.261-0.289-0.55-0.541-0.754c-0.298-0.241-0.671-0.396-0.997-0.597c-0.168-0.103-0.46-0.316-0.571-0.022
		c-0.101-0.103-0.08-0.209,0-0.316c-1.077-0.643-2.393-0.383-3.492-0.926c-0.559-0.275-1.042-0.692-1.618-0.935
		c-0.258-0.109-0.542-0.181-0.824-0.163c-0.28,0.018-0.542,0.135-0.823,0.06c-0.264-0.07-0.474-0.266-0.738-0.341
		c-0.28-0.079-0.579-0.067-0.867-0.088c-0.287-0.021-0.557-0.043-0.835,0.046c-0.308,0.098-0.578,0.271-0.903,0.316
		c-0.616,0.085-1.197-0.164-1.758-0.38c-0.584-0.225-1.176-0.458-1.767-0.663c-0.606-0.211-1.178-0.142-1.786,0.012
		c-0.312,0.079-0.582,0.094-0.9,0.07c-0.304-0.022-0.606,0.014-0.908-0.007c-0.603-0.04-1.182-0.399-1.64-0.77
		c-0.377-0.304-0.696-0.824-1.197-0.428c-0.478,0.379-0.872,0.334-1.46,0.282c-0.667-0.059-1.286-0.039-1.925,0.175
		c-0.568,0.19-1.267,0.252-1.777,0.568c-0.433,0.269-0.779,0.648-1.216,0.918c-0.265,0.163-0.504,0.361-0.764,0.531
		c-0.271,0.177-0.544,0.306-0.769,0.544c-0.201,0.213-0.367,0.44-0.612,0.606c-0.287,0.194-0.624,0.317-0.883,0.554
		c-0.374,0.343-0.47,0.897-0.908,1.182c-0.3,0.194-0.675,0.266-1.005,0.398c-0.312,0.125-0.619,0.299-0.965,0.299
		c0.072,0.145,0.396,0.371,0.178,0.52c-0.141,0.096-0.292-0.057-0.422-0.099c-0.169-0.054-0.362-0.009-0.518-0.106
		c0.251-0.058,0.537-0.138,0.537-0.447c-0.356,0.284-0.826,0.211-1.246,0.171c-0.471-0.045-0.962-0.037-1.399-0.243
		c-0.346-0.162-0.657-0.416-0.926,0.03c-0.205,0.34-0.047,0.782-0.28,1.111c0.127-0.002,0.414-0.013,0.409-0.201
		c-0.052-0.005-0.104-0.008-0.157-0.012c0.063-0.126,0.502-0.356,0.51-0.09c-0.063-0.01-0.154,0.017-0.184,0.079
		c0.229-0.029-0.037,0.22-0.072,0.303c-0.094,0.222-0.01,0.333-0.287,0.222c-0.106-0.043-0.078-0.141-0.205-0.05
		c-0.067,0.047-0.081,0.205-0.098,0.276c-0.066,0.289-0.08,0.586-0.171,0.87c-0.11,0.345-0.298,0.633-0.187,1.007
		c0.09,0.303,0.323,0.544,0.442,0.835c0.252,0.617,0.188,1.385-0.057,1.992c0.413-0.382,0.776,0.258,1.023,0.511
		c0.369,0.38,1.003,0.191,1.332,0.6c-0.351-0.088-0.738-0.06-1.069-0.217c-0.335-0.158-0.418-0.525-0.705-0.731
		c-0.604-0.434-0.749,0.553-0.901,0.914c-0.283,0.674-0.856,1.163-1.452,1.559c-0.601,0.4-1.286,0.731-2.02,0.613
		c-0.323-0.052-0.612-0.124-0.859,0.129c-0.245,0.252-0.457,0.511-0.686,0.774c-0.211,0.243-0.419,0.49-0.637,0.729
		c-0.269,0.294-0.508,0.577-0.374,0.999c0.147,0.462,0.959,0.848,0.763,1.348c-0.069,0.177-0.167,0.302-0.198,0.492
		s-0.029,0.387-0.053,0.577c-0.049,0.4-0.178,0.839-0.048,1.236c0.118,0.363,0.434,0.627,0.653,0.929
		c0.276,0.38,0.505,0.765,0.863,1.077c0.339,0.297,0.705,0.562,1.051,0.851c0.323,0.27,0.665,0.58,1.113,0.58
		c-0.03,0.157-0.236,0.137-0.3,0.265c-0.091,0.18,0.107,0.268,0.218,0.369c0.327,0.298,0.477,0.725,0.756,1.061
		c0.245,0.295,0.639,0.532,0.785,0.901c0.057,0.145,0.143,1.044-0.062,1.071c0.061,0.101,0.098,0.225,0,0.32
		c0.164,0.013,0.183,0.135,0.245,0.253c0.084,0.162,0.124,0.233,0.302,0.317c0.385,0.18,0.634,0.246,0.878,0.625
		c0.208,0.323,0.25,0.587,0.224,0.964c-0.036,0.506,0.027,1.001,0.037,1.505c0.008,0.383-0.031,0.771-0.097,1.149
		c-0.035,0.197-0.08,0.395-0.144,0.586c-0.057,0.168-0.276,0.436-0.284,0.589c-0.014,0.247,0.399,0.469,0.476,0.755
		c0.111,0.413,0.211,0.757,0.404,1.146c0.162,0.326,0.233,0.693,0.402,1.014c0.158,0.299,0.542,0.53,0.824,0.712
		c0.323,0.209,0.667,0.169,0.937,0.484c0.102,0.119,0.173,0.266,0.296,0.365c0.166,0.134,0.398,0.161,0.551,0.313
		c0.222,0.222,0.219,0.546,0.469,0.764c0.241,0.21,0.649,0.378,0.775,0.69c0.048,0.119,0.024,0.255,0.071,0.372
		c0.051,0.129,0.171,0.197,0.203,0.337c0.083,0.373-0.215,0.642,0.158,0.941c0.246,0.197,0.469,0.466,0.787,0.528
		c0.52,0.101,1.064,0.122,1.588,0.207c1.085,0.177,2.155,0.356,3.16,0.823c-0.19-0.263-0.656-0.357-0.656-0.741
		c0.142,0.076,0.255,0.191,0.39,0.279c0.136,0.088,0.303,0.124,0.436,0.216c0.245,0.169,0.272,0.496,0.449,0.721
		c0.242,0.307,0.584,0.543,0.874,0.802c0.136,0.121,0.272,0.238,0.36,0.401c0.095,0.177,0.116,0.382,0.207,0.562
		c0.294,0.581,0.985,1.003,1.583,1.207c0.383,0.131,0.788,0.117,1.183,0.189c0.18,0.032,0.353,0.096,0.533,0.126
		c0.226,0.038,0.463,0.013,0.682,0.089c-0.021,0.046-0.043,0.092-0.067,0.136c0.488-0.075,0.34,0.333,0.518,0.615
		c0.214,0.339,0.519,0.605,0.904,0.727c0.404,0.127,0.835,0.041,1.237,0.15c0.373,0.102,0.644,0.453,0.788,0.795
		c0.341-0.259,0.75-0.179,1.146-0.169c0.182,0.005,0.391-0.033,0.555,0.065c0.132,0.08,0.171,0.173,0.337,0.214
		c0.388,0.095,0.585,0.308,0.927,0.482c0.165,0.084,0.338,0.056,0.513,0.102c0.193,0.051,0.365,0.17,0.554,0.234
		c0.399,0.136,0.865,0.04,1.249,0.206c0.293,0.127,0.426,0.396,0.751,0.481c0.36,0.097,0.289,0.192,0.462,0.481
		c0.159,0.265,0.24-0.028,0.464-0.09c0.155-0.042,0.293,0.029,0.445,0.043c0.208,0.019,0.406-0.072,0.613-0.032
		c0.19,0.036,0.349,0.177,0.535,0.23c0.241,0.069,0.505,0.059,0.74-0.025c0.276-0.1,0.595-0.399,0.911-0.303
		c0.188,0.058,0.189,0.221,0.329,0.332c0.116,0.092,0.268,0.092,0.388,0.184c0.134,0.103,0.186,0.215,0.356,0.271
		c0.195,0.065,0.311,0.085,0.467,0.228c0.317,0.291,0.473,0.441,0.904,0.49c0.837,0.096,1.576-0.471,2.404-0.434
		c0.203,0.009,0.425,0.034,0.597,0.151c0.174,0.119,0.24,0.328,0.399,0.458c0.323,0.26,0.549-0.113,0.795-0.307
		c0.344-0.269,0.77-0.438,1.208-0.354c0.23,0.044,0.396,0.122,0.626,0.032c0.161-0.064,0.279-0.223,0.466-0.106
		c0-1.371,1.799-0.708,2.612-0.684c0.592,0.018,1.225-0.025,1.771-0.271c0.232-0.104,0.416-0.292,0.647-0.392
		c0.274-0.118,0.583-0.073,0.873-0.066c0.502,0.011,1.089-0.083,1.531-0.343c0.175-0.103,0.271-0.305,0.456-0.389
		c0.26-0.119,0.572,0.015,0.833,0.06c0.536,0.095,1.161,0.062,1.636-0.225c0.241-0.146,0.396-0.368,0.595-0.56
		c0.2-0.192,0.443-0.307,0.677-0.452c0.471-0.292,0.711-0.739,0.97-1.211c0.281-0.51,0.666-0.862,0.429-1.472
		c-0.476-1.223-0.456-2.478-0.309-3.764c0.038-0.333-0.07-0.55-0.177-0.854c-0.109-0.312-0.09-0.592-0.041-0.913
		c0.099-0.635-0.16-1.166-0.155-1.788c0.002-0.28,0.105-0.529,0.185-0.793c0.095-0.317,0.078-0.64,0.136-0.963
		c0.052-0.287,0.167-0.56,0.216-0.849c0.052-0.3-0.023-0.603,0.027-0.899c0.059-0.346,0.285-0.646,0.417-0.964
		c0.119-0.287,0.189-0.567,0.38-0.82c0.378-0.501,0.784-0.921,0.812-1.587c0.013-0.3-0.136-0.703-0.04-0.989
		c0.072-0.216,0.214-0.162,0.413-0.159c0.244,0.005,0.472-0.039,0.57-0.289c0.046-0.118,0.097-0.494-0.024-0.586
		c0.031,0.023,0.059,0.118,0.043,0.154c0.007-0.017-0.131-0.167-0.048-0.187c0.028-0.007,0.056,0.158,0.046,0.18
		c-0.003,0.007-0.116-0.163-0.046-0.179c0.026-0.006,0.054,0.162,0.046,0.179C93.805,533.522,93.751,533.411,93.765,533.438
		C93.738,533.1,93.896,533.698,93.765,533.438z"/>
	<path id="15" fill="#D1D3D4" d="M45.266,452.037l-0.182-0.729l-0.668-0.243l-0.425-0.304l-0.183,0.425l-0.851,0.608l0.061,0.546
		l-0.486,0.669l0.183,0.425l0.546,0.121l0.607,0.304l0.305,0.305l0.667-0.426l0.365-0.789h0.425l0.487-0.304l-0.062-0.547
		L45.266,452.037L45.266,452.037z M46.724,453.859h-0.303l0.061,0.365l0.364,0.486l0.486,0.061l-0.243-0.485L46.724,453.859
		L46.724,453.859z M48.607,453.496l-0.304,0.304L48,454.164l0.061,0.486l0.425-0.243l0.365,0.182l0.607,0.122v-0.364l-0.364-0.426
		L48.607,453.496L48.607,453.496z M27.64,418.312l-0.304,0.124l0.061,0.241l0.425,0.182l0.304-0.242l-0.183-0.304H27.64
		L27.64,418.312z M48.113,400.27l0.122-0.304h1.155l0.242-0.244l-0.182-0.364l-0.425-0.121l-0.486-0.243l-0.425,0.304l-0.486,0.607
		l0.122,0.426L48.113,400.27L48.113,400.27z M28.976,397.84l0.183-0.243l-0.242-0.729h-0.365l0.061,0.79L28.976,397.84
		L28.976,397.84z M48.668,450.459v-0.608h-0.972l-0.365,0.485l0.182,0.243L48.668,450.459L48.668,450.459z M98.181,417.228
		l0.12,0.304l0.973-0.061l-0.121-0.609L98.181,417.228L98.181,417.228z M50.309,449.426l-0.061,0.608l0.426,0.364l-0.244,0.729
		l-0.546-0.244l0.121-0.606l-0.425-0.365l-0.607,0.668l0.485,0.182l-0.304,0.668l-0.608,0.244l-0.79-0.062l-0.364,0.606l0.304,0.487
		l0.668,0.121l0.608-0.547l0.546-0.122l0.425,0.305l0.243-0.426l0.062-0.547l0.729-0.242l0.182-0.669l-0.303-0.911L50.309,449.426
		L50.309,449.426z M97.39,418.078l-0.606-0.182l-0.305,0.364l0.184,0.366l0.79,0.181l0.788-0.303l0.549-0.365l-0.731-0.304
		L97.39,418.078L97.39,418.078z M108.264,400.036l-0.182-0.609v-0.485l-0.852-0.122l-0.362,0.668h-0.547l-0.547,0.425l-1.034,0.364
		l-0.972,0.667l-0.79,0.73l-0.608,0.425l-0.909,0.122l-0.547,0.12l-0.183,0.609l-0.608,0.242l-0.608-0.242l-0.303,0.849
		l-0.608,0.122l0.365,0.547l-0.427,0.668l0.305,0.182l0.607-0.486l0.547-0.061l1.215-0.668l1.519-0.486l1.214-0.243l0.79-0.669
		l1.338-0.91l0.79-0.365l0.911-0.243l0.971-0.789L108.264,400.036L108.264,400.036z M90.1,409.876l-0.425,0.122l-0.729-0.365
		l-0.667,0.122l-1.58-0.792l-1.154-0.545l-1.155-0.546l-0.789-1.154l-0.365-0.791l-0.426-0.424v-0.486l-0.424-0.608l-0.608-0.121
		l-0.061-0.607l-0.972-0.062l-0.182-0.486l-0.607-0.122l-0.487-0.486l-0.242,0.122l-1.033-0.668l-0.728-0.365h-1.884l-0.912-0.303
		l-0.789,0.303l-0.669-0.485l-1.215-0.121l-0.729-0.122l-0.364-0.546l-0.79-0.304l-0.425-0.669l-0.972-1.336l-0.667-0.85
		l-0.244-0.911l-0.364-0.729l0.121-1.155l0.243-0.728l0.365-1.764l0.061-2.065l-0.304-0.667l-0.729,0.121l0.182-0.608l0.062-1.032
		l-0.486-0.242l0.121-0.609l-0.607-0.667l-1.58-1.154l-0.547-0.607l-0.486,0.243l-0.304-1.398l-0.364-0.12l-0.547,0.182
		l-0.485-0.304l-0.303,0.365l-0.243-0.851l-0.973-0.184l-0.546,0.73l-0.425,0.667l-1.155,0.973l-1.154,0.546l-0.121,0.424
		l-0.425,0.487l-1.154,0.304l-1.337,1.458l-0.061,0.972l-0.729,1.093l0.365,0.243l0.364,1.337l0.425,0.972v1.275l0.608,1.033
		l1.579,0.546l0.729,0.668l0.486,0.973l-0.486,0.911l0.365,0.183l-0.244,0.487l0.668,0.242l-0.425,0.486h-0.791l-0.06,0.73
		l-0.912-0.061l-0.607-0.242l-0.365,0.242l-1.094,1.094l-0.182,1.154v1.275l-0.729,0.79l-0.426,0.363l0.183,0.608l-0.546,0.73
		l0.242,0.971l-0.728,0.06l-0.243-0.729l-0.486-0.122l-0.911,0.122l-1.034,0.244l-0.242,0.91l-0.426,0.608h-0.971l-0.122-0.425
		v-0.972l-0.546,0.972l-0.668,0.607l-0.607-0.121l0.303-0.549l0.183-0.605h-0.729l-0.425,0.365l-0.364-0.547l0.304-0.608l0.121-0.79
		l0.365,0.364l0.121,0.729l0.304-0.181l0.668-1.214l0.608-0.73l-0.972-0.122l-1.094,0.183l-0.607-0.243l-0.669-0.485l-0.972-0.304
		v-0.79l-0.669-0.303l-0.607,0.182l-0.668,0.122l-0.425-0.244l-0.425,0.427l-0.304-0.852l-0.547-0.304l-0.364,0.547l-0.547-0.668
		l-0.668-0.485l-1.153-0.365l-0.791-0.304l-0.365-0.791l-0.364-0.061l-0.121-0.668l-0.79-0.426l-0.851-0.122l-0.304-0.304
		l-0.486-0.121l0.061,0.791l-1.033-0.183l-0.728-0.184l-0.791,0.792l-0.668,0.121l-0.728,1.155l-0.668,0.789l0.06,0.607
		l-0.424,0.365l-0.485,0.364l-0.487,0.365l0.304,0.304l0.304,0.425l-0.304,0.364l-0.486,0.182l-0.121,1.155l0.243,1.397
		l-0.243,0.485l-0.486,0.244l0.304,1.519l0.303,1.275l0.608,1.094l0.547,0.183l0.668,0.667l-0.183,1.216l0.487,0.607l-0.304,0.668
		l-0.183,0.912l-0.062,0.425l0.365,0.485v1.459l0.791,0.243l-0.122,1.763l0.061,1.275l-0.061,0.912l0.546,0.486l0.061,0.79
		l-0.425,0.303l0.243,0.546v0.791l-0.183,0.972l0.486,0.911l-0.122,0.546l0.487,0.122l-0.305,0.913l0.122,0.728l0.122,1.7
		l0.546,1.216l1.154,1.519l0.485,1.338l0.487,1.7l1.033,0.973l1.215,1.03l0.729,0.669l0.486,0.973l0.243,1.152l-0.122,0.73
		l0.486,0.425l0.729,0.122h0.911l0.668-0.182l0.365-0.486l0.486-0.122l0.546-0.729l0.485-0.364l0.487,0.06v0.546l0.607-0.728
		l0.061-0.364l0.365-0.061l0.304,0.242l0.667,0.06l0.851-0.364h0.607l0.365-0.243l0.486-0.062l-0.183-0.485l0.608-0.729l0.182-0.668
		l0.851-0.608l0.182-0.608l0.608-0.304l1.033-0.85l0.363-0.486l0.425-0.242l0.972-0.852l0.365-1.032l0.547-1.276l0.425-0.729
		l-0.304-0.972l-0.304-0.851l0.183-0.729l-0.183-0.303l0.183-1.094l-0.122-0.667l-0.546-0.73l0.121-0.485l-0.486-0.243l-0.121-1.033
		l0.546-0.607l0.364-0.426l-0.121-0.546l-0.668-0.183l-0.608-0.182l-0.364-0.548l0.304-0.303v-0.547l-0.608-0.485l-0.363-0.608
		l-0.062-0.91l0.486-0.609l-0.243-0.425l-0.486-0.121l-0.426-0.851l0.304-1.155l0.243-0.304l0.244-0.546l-0.487-0.243l0.183-0.486
		l-0.122-0.729l0.304-1.092l0.425-0.487l0.304,0.181l0.364,0.123l0.244-0.366l0.426,0.062l0.182,0.424h0.425l0.182-0.303
		l0.912,0.425l0.486,0.184l-0.303-0.609l-0.365-0.425l0.365-0.365l-0.244-0.183l-0.303-0.728l0.547,0.061l0.314,0.338l0.475,0.512
		l0.365,0.79l0.486,0.486l0.068,0.155l0.418,0.939l0.425,0.546l0.608,0.062l0.667-0.365l0.426,0.365l-0.061,0.548l0.121,0.485
		l1.276,0.303h1.275l0.972,0.305l0.973,0.242l0.911-0.182l0.972-0.304l0.546-0.547l2.43,0.061l0.972-0.667l0.486-0.364l0.365-0.244
		l0.485,0.244l0.303-0.548l1.763-0.122l-0.122-0.364l0.851-0.424l1.154-0.487l0.912,0.181l0.608-0.667l1.093-0.182l0.669-0.122
		l1.094,0.243l0.911-0.183l2.916-0.667l0.971-0.183l0.851-0.182l0.486-0.243h1.396l0.851,0.243l0.608-0.122l0.668,0.062l1.093,0.486
		l1.701,0.06l0.912,0.243l0.608,0.367l0.485-0.305l-0.424-0.486L90.1,409.876L90.1,409.876z M88.399,442.5l-1.276-0.729
		l-0.972-1.156l-0.486-0.546l-0.243-1.154l-0.85-0.548l-0.972-0.302l-0.912-0.548l-1.336-0.85l-0.729-0.061l-0.912,0.242
		l-1.093,0.426l-0.425,0.791l-0.546,1.336l-1.033,0.364l-0.244,0.487l-0.121,0.668l-0.061,1.276l-0.729,0.607l-0.791,0.79v0.425
		l0.122,1.337l0.487,1.335v1.397l0.546,0.85l0.911,1.034l0.912,0.122l0.912,0.546l1.518,0.486l1.336,0.244l1.215-0.305l1.761-0.486
		l0.851-0.425l1.276-0.972l0.303-0.911l1.459-0.365l0.546-1.275l0.425-1.945l-0.304-1.154L88.399,442.5L88.399,442.5z"/>
</g>
<g id="limites">
	<g>
		<g>
			<polyline fill="none" stroke="#FFFFFF" stroke-width="3" stroke-linecap="round" stroke-linejoin="round" points="
				262.163,317.787 268.003,310.416 266.844,307.312 275.012,299.168 273.466,294.894 273.865,288.292 270.396,274.31 
				273.904,266.547 271.583,261.495 273.149,252.954 			"/>
			
				<line fill="none" stroke="#FFFFFF" stroke-width="3" stroke-linecap="round" stroke-linejoin="round" x1="259.052" y1="321.274" x2="262.163" y2="317.787"/>
			<polyline fill="none" stroke="#FFFFFF" stroke-width="3" stroke-linecap="round" stroke-linejoin="round" points="
				259.052,321.274 250.522,314.272 244.695,314.648 244.302,318.142 234.972,323.175 229.526,328.601 221.762,327.034 
				214.767,329.742 211.272,329.734 206.219,332.056 			"/>
			<polyline fill="none" stroke="#FFFFFF" stroke-width="3" stroke-linecap="round" stroke-linejoin="round" points="
				206.219,332.056 204.273,334.77 203.097,340.982 198.815,346.803 192.607,344.46 188.717,347.947 185.221,348.33 
				181.334,351.041 			"/>
			<polyline fill="none" stroke="#FFFFFF" stroke-width="3" stroke-linecap="round" stroke-linejoin="round" points="
				242.498,238.144 244.821,242.03 246.749,250.968 255.676,254.088 260.733,248.27 264.612,249.831 270.438,249.844 
				273.149,252.954 			"/>
		</g>
		<g>
			<polyline fill="none" stroke="#FFFFFF" stroke-width="3" stroke-linecap="round" stroke-linejoin="round" points="
				453.542,133.455 451.23,124.907 443.874,111.302 438.445,107.798 430.298,103.513 			"/>
			<path fill="none" stroke="#FFFFFF" stroke-width="3" stroke-linecap="round" stroke-linejoin="round" d="M450.769,167.622
				l1.941-1.548l0.397-3.494l0.779-3.883l-2.715-1.557l1.562-4.658l-2.717-1.558c0,0-1.16-2.721-1.546-3.887
				s3.114-5.043,3.114-5.043l-0.382-2.717l-3.107,1.159l-1.553-1.556l6.998-5.425"/>
			<polyline fill="none" stroke="#FFFFFF" stroke-width="3" stroke-linecap="round" stroke-linejoin="round" points="
				456.566,181.612 458.123,178.898 456.577,174.625 450.769,167.622 			"/>
			<polyline fill="none" stroke="#FFFFFF" stroke-width="3" stroke-linecap="round" stroke-linejoin="round" points="
				338.762,263.733 338.378,259.85 338.382,257.91 334.885,258.679 332.562,254.792 333.349,248.58 330.248,246.244 
				327.132,250.122 320.524,254.199 312.76,252.634 308.873,254.958 305.379,254.564 305.371,258.446 300.321,259.601 
				299.165,255.332 296.444,256.49 296.438,259.207 294.497,259.979 291.784,256.869 289.065,256.865 287.907,252.593 			"/>
			<polyline fill="none" stroke="#FFFFFF" stroke-width="3" stroke-linecap="round" stroke-linejoin="round" points="
				439.425,213.039 435.544,213.033 435.534,218.083 429.695,225.449 429.302,228.942 423.475,230.1 419.594,228.927 
				411.046,231.241 400.172,232 393.949,237.036 			"/>
			<polyline fill="none" stroke="#FFFFFF" stroke-width="3" stroke-linecap="round" stroke-linejoin="round" points="
				394.644,284.025 391.551,275.478 390.786,270.038 394.286,266.161 400.11,266.172 404.394,260.742 402.068,257.241 
				403.237,254.526 403.245,250.643 398.591,247.529 393.939,243.248 393.949,237.036 			"/>
			<polyline fill="none" stroke="#FFFFFF" stroke-width="3" stroke-linecap="round" stroke-linejoin="round" points="
				338.762,263.733 350.023,261.812 350.419,257.931 359.355,255.618 362.446,265.719 367.873,270.388 380.287,278.176 
				383.008,275.852 389.596,284.404 394.644,284.025 			"/>
			<polyline fill="none" stroke="#FFFFFF" stroke-width="3" stroke-linecap="round" stroke-linejoin="round" points="
				287.907,252.593 286.355,251.037 280.922,250.249 277.812,251.796 273.149,252.954 			"/>
			<polyline fill="none" stroke="#FFFFFF" stroke-width="3" stroke-linecap="round" stroke-linejoin="round" points="
				456.566,181.612 454.239,180.444 450.742,181.217 448.796,183.932 448.398,189.752 441.78,198.287 			"/>
			<polyline fill="none" stroke="#FFFFFF" stroke-width="3" stroke-linecap="round" stroke-linejoin="round" points="
				439.425,213.039 439.825,207.214 435.16,208.758 433.619,202.934 441.78,198.287 			"/>
		</g>
		<g>
			<polyline fill="none" stroke="#FFFFFF" stroke-width="3" stroke-linecap="round" stroke-linejoin="round" points="
				508.189,196.072 514.404,195.307 517.896,198.417 521.783,195.319 523.725,196.486 527.995,195.331 528.768,198.825 
				530.706,199.606 532.655,196.112 534.207,196.504 539.263,192.243 			"/>
			<polyline fill="none" stroke="#FFFFFF" stroke-width="3" stroke-linecap="round" stroke-linejoin="round" points="
				539.263,192.243 542.365,194.964 543.52,200.795 547.78,206.626 550.497,207.797 553.982,214.015 557.476,213.634 
				565.619,221.024 			"/>
			<polyline fill="none" stroke="#FFFFFF" stroke-width="3" stroke-linecap="round" stroke-linejoin="round" points="
				456.566,181.612 453.069,182.386 452.673,187.044 455,189.767 465.094,190.17 474.81,185.528 480.628,190.588 487.229,190.987 
				489.176,188.273 494.613,188.281 500.821,191.397 500.428,194.116 502.753,195.675 506.644,192.962 508.189,196.072 			"/>
			<polyline fill="none" stroke="#FFFFFF" stroke-width="3" stroke-linecap="round" stroke-linejoin="round" points="
				543.666,200.633 547.928,206.468 550.646,207.641 554.132,213.862 557.63,213.481 565.777,220.88 568.513,213.112 
				573.183,210.01 573.966,204.96 575.916,203.021 573.984,196.021 571.266,194.851 571.271,190.966 574.388,189.028 
				577.878,190.198 579.439,186.315 576.336,184.368 573.239,177.366 574.802,172.316 583.355,170.39 586.074,170.783 
				587.242,169.23 585.694,167.673 588.419,165.346 596.188,167.302 597.746,163.808 595.809,162.25 595.82,154.478 
				596.218,147.482 596.229,142.042 599.726,142.826 607.521,128.849 607.929,119.523 608.707,117.192 607.161,112.525 
				606.78,109.415 			"/>
		</g>
		<g>
			<polyline fill="none" stroke="#FFFFFF" stroke-width="3" stroke-linecap="round" stroke-linejoin="round" points="
				569.462,243.555 569.083,239.671 563.256,239.661 564.822,233.062 562.111,229.562 563.674,223.354 565.619,221.024 			"/>
			<polyline fill="none" stroke="#FFFFFF" stroke-width="3" stroke-linecap="round" stroke-linejoin="round" points="
				559.718,264.506 560.117,257.908 563.619,255.973 561.298,250.919 565.182,248.594 565.965,245.49 569.462,243.555 			"/>
			<polyline fill="none" stroke="#FFFFFF" stroke-width="3" stroke-linecap="round" stroke-linejoin="round" points="
				559.718,264.506 557.778,264.116 553.499,267.215 550.394,266.823 546.51,267.979 541.469,264.865 537.971,266.023 
				537.573,269.906 534.845,275.726 537.948,276.896 537.169,280 532.495,287.371 			"/>
			<polyline fill="none" stroke="#FFFFFF" stroke-width="3" stroke-linecap="round" stroke-linejoin="round" points="
				469.995,274.837 470.006,269.791 468.066,267.456 468.46,263.96 465.363,260.071 			"/>
			<polyline fill="none" stroke="#FFFFFF" stroke-width="3" stroke-linecap="round" stroke-linejoin="round" points="
				465.363,260.071 461.477,260.842 452.56,252.672 452.183,246.456 443.266,236.731 443.663,231.686 441.728,228.575 
				442.128,221.586 440.194,217.699 439.425,213.039 			"/>
			<polyline fill="none" stroke="#FFFFFF" stroke-width="3" stroke-linecap="round" stroke-linejoin="round" points="
				497.182,273.329 499.89,279.158 504.542,282.276 501.042,286.539 499.482,289.258 512.689,288.893 515.792,290.061 
				521.237,285.799 522.396,288.906 525.118,287.36 528.616,286.978 532.495,287.371 			"/>
			<polyline fill="none" stroke="#FFFFFF" stroke-width="3" stroke-linecap="round" stroke-linejoin="round" points="
				497.182,273.329 493.688,272.161 489.811,269.434 486.7,272.922 481.653,270.584 479.322,271.745 469.995,274.837 			"/>
		</g>
		<g>
			<polyline fill="none" stroke="#FFFFFF" stroke-width="3" stroke-linecap="round" stroke-linejoin="round" points="
				396.966,289.079 400.852,287.529 399.301,285.198 394.644,284.025 			"/>
			<polyline fill="none" stroke="#FFFFFF" stroke-width="3" stroke-linecap="round" stroke-linejoin="round" points="
				340.882,382.566 342.443,378.298 342.454,371.698 342.466,366.648 349.074,361.613 349.474,355.401 352.981,348.026 
				351.432,346.47 350.658,343.754 355.327,339.1 			"/>
			<polyline fill="none" stroke="#FFFFFF" stroke-width="3" stroke-linecap="round" stroke-linejoin="round" points="355.327,339.1 
				361.535,342.218 364.639,343.387 365.806,341.838 361.153,338.335 362.322,336.395 365.815,337.565 371.639,337.576 
				380.194,331.378 			"/>
			<polyline fill="none" stroke="#FFFFFF" stroke-width="3" stroke-linecap="round" stroke-linejoin="round" points="
				527.34,349.883 531.592,360.765 529.247,368.915 535.062,375.138 537.764,384.074 540.46,396.507 542.785,400.783 
				541.219,405.829 540.43,413.594 537.317,417.081 			"/>
			<polyline fill="none" stroke="#FFFFFF" stroke-width="3" stroke-linecap="round" stroke-linejoin="round" points="485.8,454.582 
				490.087,446.823 498.628,445.671 509.117,443.75 510.686,435.985 509.531,430.934 513.615,425.974 516.729,422.873 
				526.435,422.5 531.882,416.684 537.317,417.081 			"/>
			<polyline fill="none" stroke="#FFFFFF" stroke-width="3" stroke-linecap="round" stroke-linejoin="round" points="
				533.562,343.681 532.024,336.3 528.533,332.021 524.651,330.849 523.497,325.023 525.056,323.476 528.937,324.648 
				535.542,323.492 536.711,319.221 537.494,316.894 535.553,316.113 534.002,313.393 542.947,306.417 543.343,301.371 
				537.532,293.982 536.76,291.262 532.495,287.371 			"/>
			<polyline fill="none" stroke="#FFFFFF" stroke-width="3" stroke-linecap="round" stroke-linejoin="round" points="
				533.562,343.681 530.838,346.115 527.34,349.883 			"/>
			<polyline fill="none" stroke="#FFFFFF" stroke-width="3" stroke-linecap="round" stroke-linejoin="round" points="
				380.194,331.378 377.479,329.432 377.481,328.266 378.647,327.103 384.864,325.172 389.145,320.52 389.935,312.363 
				393.044,311.595 395.384,305.772 395.39,302.278 396.171,299.17 392.29,298.392 393.462,292.956 394.633,289.852 
				396.966,289.079 			"/>
			<polyline fill="none" stroke="#FFFFFF" stroke-width="3" stroke-linecap="round" stroke-linejoin="round" points="
				394.891,422.141 399.585,427.667 397.644,435.044 407.739,445.142 409.291,445.531 415.118,454.074 414.533,459.118 			"/>
			<polyline fill="none" stroke="#FFFFFF" stroke-width="3" stroke-linecap="round" stroke-linejoin="round" points="
				340.882,382.566 349.51,390.218 348.344,392.547 351.447,392.94 357.66,392.95 361.149,396.064 360.75,403.443 370.843,404.622 
				372.787,402.687 376.674,401.918 377.067,398.034 385.604,401.932 386.372,407.757 392.183,415.146 394.891,422.141 			"/>
			<polyline fill="none" stroke="#FFFFFF" stroke-width="3" stroke-linecap="round" stroke-linejoin="round" points="
				429.086,463.805 424.824,458.749 418.995,461.069 414.533,459.118 			"/>
			<polyline fill="none" stroke="#FFFFFF" stroke-width="3" stroke-linecap="round" stroke-linejoin="round" points="
				480.364,453.794 473.369,456.889 465.996,452.995 452.403,455.3 450.068,457.627 441.136,458.39 438.421,456.055 
				429.086,463.805 			"/>
			
				<line fill="none" stroke="#FFFFFF" stroke-width="3" stroke-linecap="round" stroke-linejoin="round" x1="485.8" y1="454.582" x2="480.364" y2="453.794"/>
		</g>
		<g>
			<polyline fill="none" stroke="#FFFFFF" stroke-width="3" stroke-linecap="round" stroke-linejoin="round" points="
				286.58,463.005 280.754,461.453 274.541,461.453 276.485,457.179 276.485,453.685 272.21,456.793 270.271,457.957 
				263.669,461.062 			"/>
			<polyline fill="none" stroke="#FFFFFF" stroke-width="3" stroke-linecap="round" stroke-linejoin="round" points="
				340.882,382.566 338.944,381.402 333.497,387.604 329.613,387.211 327.282,388.369 			"/>
			<polyline fill="none" stroke="#FFFFFF" stroke-width="3" stroke-linecap="round" stroke-linejoin="round" points="
				327.282,388.369 320.293,387.97 315.247,387.004 310.189,390.487 306.311,388.537 302.426,389.307 300.479,392.025 
				302.803,395.91 298.141,397.844 280.664,398.593 			"/>
			<polyline fill="none" stroke="#FFFFFF" stroke-width="3" stroke-linecap="round" stroke-linejoin="round" points="
				286.58,463.005 289.687,461.453 297.453,461.062 302.113,456.403 298.617,453.685 295.124,456.793 294.734,445.142 
				298.229,442.423 298.617,435.044 296.288,433.103 292.726,421.875 290.34,417.637 293.064,414.146 292.679,412.204 
				290.348,412.199 284.147,405.198 284.151,402.479 280.664,398.593 			"/>
		</g>
		<g>
			<path fill="none" stroke="#FFFFFF" stroke-width="3" stroke-linecap="round" stroke-linejoin="round" d="M336.264,694.7
				l1.555-1.939l2.719,0.004l2.723-1.546c0,0,5.438-1.159,6.602-1.154c1.164,0.002,6.602,0.399,6.602,0.399l6.607-3.483l6.217-0.767
				l2.331-2.327l5.433,3.118l6.217-1.934"/>
			<polyline fill="none" stroke="#FFFFFF" stroke-width="3" stroke-linecap="round" stroke-linejoin="round" points="336.264,694.7 
				335.477,700.135 330.818,698.958 330.048,696.242 331.602,695.079 328.887,692.744 321.112,697.779 316.481,700.663 
				317.646,702.991 316.092,717.751 314.152,718.914 314.927,723.187 312.21,727.457 314.927,730.565 			"/>
			<polyline fill="none" stroke="#FFFFFF" stroke-width="3" stroke-linecap="round" stroke-linejoin="round" points="
				405.452,656.763 398.847,658.305 395.357,655.58 394.187,658.685 391.458,663.729 397.668,666.847 394.939,672.665 
				391.825,676.156 394.15,679.267 384.825,681.967 383.268,685.071 			"/>
			<polyline fill="none" stroke="#FFFFFF" stroke-width="3" stroke-linecap="round" stroke-linejoin="round" points="
				323.383,731.178 320.279,730.399 314.927,730.565 			"/>
			<polyline fill="none" stroke="#FFFFFF" stroke-width="3" stroke-linecap="round" stroke-linejoin="round" points="
				323.383,731.178 323.767,734.676 326.483,735.459 328.027,741.675 323.742,747.877 326.847,749.436 330.737,745.559 
				330.34,751.385 332.659,756.824 329.555,756.045 327.22,759.535 329.155,763.032 326.812,770.021 320.2,775.832 316.87,775.999 
				314.927,782.99 311.82,783.377 308.325,788.427 307.55,796.967 308.325,803.958 			"/>
			<path fill="none" stroke="#FFFFFF" stroke-width="3" stroke-linecap="round" stroke-linejoin="round" d="M493.45,464.306
				c0.534,0,2.818,0.002,2.818,0.002l1.938,2.335l7.364,7.39l2.7,8.547"/>
			<path fill="none" stroke="#FFFFFF" stroke-width="3" stroke-linecap="round" stroke-linejoin="round" d="M493.45,464.306
				c0.03,0,0.055,0,0.1,0c1.167,0-3.489-2.725-3.489-2.725l0.392-2.329l-4.652-4.67"/>
			<polyline fill="none" stroke="#FFFFFF" stroke-width="3" stroke-linecap="round" stroke-linejoin="round" points="
				433.525,591.573 431.188,594.673 433.126,597.785 433.495,609.048 424.55,617.188 425.321,620.681 412.878,628.818 
				413.647,633.089 408.593,636.574 			"/>
			<polyline fill="none" stroke="#FFFFFF" stroke-width="3" stroke-linecap="round" stroke-linejoin="round" points="
				405.452,656.763 399.65,643.55 400.044,639.666 405.481,639.677 408.593,636.574 			"/>
			<polyline fill="none" stroke="#FFFFFF" stroke-width="3" stroke-linecap="round" stroke-linejoin="round" points="
				474.676,597.856 470.016,598.236 466.526,596.678 461.462,603.27 455.64,603.264 451.763,598.982 449.054,594.314 
				446.339,591.594 442.07,591.59 439.353,590.807 433.525,591.573 			"/>
			<polyline fill="none" stroke="#FFFFFF" stroke-width="3" stroke-linecap="round" stroke-linejoin="round" points="
				474.676,597.856 478.567,593.594 477.415,586.213 480.134,586.606 486.755,575.744 483.651,574.185 482.883,569.911 
				495.709,562.168 497.662,555.57 501.151,557.128 504.26,557.132 506.21,554.422 504.271,552.086 506.22,548.205 			"/>
			<polyline fill="none" stroke="#FFFFFF" stroke-width="3" stroke-linecap="round" stroke-linejoin="round" points="
				502.381,520.238 496.954,515.957 498.127,510.911 504.739,505.099 511.354,497.732 510.59,491.905 506.713,487.625 
				506.329,484.521 508.271,482.579 			"/>
			<polyline fill="none" stroke="#FFFFFF" stroke-width="3" stroke-linecap="round" stroke-linejoin="round" points="
				502.381,520.238 505.875,522.963 507.029,529.179 502.753,530.725 503.911,535.774 507.009,541.216 505.841,543.155 
				506.22,548.205 			"/>
			<polygon fill="none" stroke="#FFFFFF" stroke-width="3" stroke-linecap="round" stroke-linejoin="round" points="
				325.024,757.747 327.354,756.193 326.966,753.864 326.188,751.923 323.859,753.089 325.024,754.642 323.083,755.804 
				323.083,758.135 			"/>
			<polygon fill="none" stroke="#FFFFFF" stroke-width="3" stroke-linecap="round" stroke-linejoin="round" points="
				319.587,762.795 321.53,765.122 324.247,764.736 323.859,761.243 322.306,760.466 320.366,761.243 			"/>
		</g>
		<g>
			<polyline fill="none" stroke="#FFFFFF" stroke-width="3" stroke-linecap="round" stroke-linejoin="round" points="
				474.676,597.856 478.163,602.524 478.155,607.185 482.03,612.236 481.237,621.942 485.493,630.108 			"/>
			<polyline fill="none" stroke="#FFFFFF" stroke-width="3" stroke-linecap="round" stroke-linejoin="round" points="
				485.493,630.108 486.276,627.39 494.82,625.854 496.758,629.352 503.747,629.362 514.66,606.083 523.213,599.496 
				525.932,601.441 524.755,606.102 527.088,605.324 530.968,607.274 532.509,614.659 535.222,617.378 535.986,623.981 
				538.701,627.869 			"/>
			<path fill="none" stroke="#FFFFFF" stroke-width="3" stroke-linecap="round" stroke-linejoin="round" d="M564.384,595.684
				l-5.056,5.04l-3.498,1.546c0,0-2.725,3.104-2.725,4.655c-0.004,1.553-5.043-3.503-5.043-3.503l-2.721,0.381l0.375,9.324
				l-3.502,1.546l-0.793,10.096l-2.721,3.101"/>
			<polyline fill="none" stroke="#FFFFFF" stroke-width="3" stroke-linecap="round" stroke-linejoin="round" points="
				599.292,620.208 596.967,618.654 595.421,614.375 590.381,608.934 584.557,608.92 582.621,605.422 578.347,605.028 
				577.567,608.133 570.572,611.616 570.192,605.014 568.648,600.737 564.384,595.684 			"/>
			<polyline fill="none" stroke="#FFFFFF" stroke-width="3" stroke-linecap="round" stroke-linejoin="round" points="
				608.569,645.077 613.613,648.193 613.591,659.457 615.145,660.624 618.641,658.688 624.461,661.803 628.351,658.707 
				633.015,655.994 637.281,657.555 638.055,660.662 641.162,660.279 640.783,655.233 646.995,655.629 654.751,660.693 			"/>
			<polyline fill="none" stroke="#FFFFFF" stroke-width="3" stroke-linecap="round" stroke-linejoin="round" points="
				599.292,620.208 601.608,627.201 602.378,632.253 605.873,633.813 608.569,645.077 			"/>
			<polyline fill="none" stroke="#FFFFFF" stroke-width="3" stroke-linecap="round" stroke-linejoin="round" points="
				662.682,697.414 660.509,699.924 657.401,701.47 658.164,710.403 654.267,718.551 647.273,718.93 642.601,727.074 
				643.374,730.182 639.872,732.117 635.591,736.384 630.542,737.928 629.955,740.839 			"/>
			<polyline fill="none" stroke="#FFFFFF" stroke-width="3" stroke-linecap="round" stroke-linejoin="round" points="
				662.682,697.414 670.235,688.681 661.322,677.79 660.949,670.799 656.302,665.355 654.751,660.693 			"/>
		</g>
		<g>
			<polyline fill="none" stroke="#FFFFFF" stroke-width="3" stroke-linecap="round" stroke-linejoin="round" points="
				760.141,573.888 766.353,574.675 768.678,578.952 772.555,580.51 776.061,577.8 774.506,574.691 777.233,572.364 
				781.889,573.537 786.014,575.241 			"/>
			<polyline fill="none" stroke="#FFFFFF" stroke-width="3" stroke-linecap="round" stroke-linejoin="round" points="
				730.943,615.39 732.885,616.556 733.66,618.112 725.886,622.371 721.617,620.809 719.672,622.36 719.661,628.572 
				717.318,634.396 718.868,637.504 716.923,640.604 714.594,640.214 708.767,639.429 708.375,642.923 710.7,645.258 
				707.204,645.25 707.198,649.91 710.298,652.633 721.171,653.428 721.55,657.698 725.044,659.648 725.031,665.86 			"/>
			<polyline fill="none" stroke="#FFFFFF" stroke-width="3" stroke-linecap="round" stroke-linejoin="round" points="
				725.031,665.86 722.312,667.412 725.023,670.133 722.307,670.517 719.981,667.794 716.865,672.062 714.145,674.386 			"/>
			<polyline fill="none" stroke="#FFFFFF" stroke-width="3" stroke-linecap="round" stroke-linejoin="round" points="
				730.943,615.39 732.896,609.566 735.614,612.291 742.222,607.256 740.284,604.531 754.272,598.733 767.087,598.753 
				766.328,589.824 764.395,585.156 760.899,585.15 758.185,583.594 758.578,578.934 760.141,573.888 			"/>
			<polygon fill="none" stroke="#FFFFFF" stroke-width="3" stroke-linecap="round" stroke-linejoin="round" points="
				669.128,656.832 670.29,658.775 673.396,658.782 677.285,656.847 680.394,653.746 681.177,651.417 678.458,649.861 
				675.354,648.303 672.25,649.072 670.691,652.565 			"/>
			<polyline fill="none" stroke="#FFFFFF" stroke-width="3" stroke-linecap="round" stroke-linejoin="round" points="
				714.145,674.386 709.48,674.379 707.16,671.27 704.833,670.876 702.894,666.99 697.46,666.205 695.908,665.034 689.307,665.024 
				687.368,663.467 688.545,658.029 684.267,659.579 677.669,658.788 670.67,663.825 664.845,663.428 662.913,658.374 
				656.701,656.812 			"/>
		</g>
		<g>
			<polyline fill="none" stroke="#FFFFFF" stroke-width="3" stroke-linecap="round" stroke-linejoin="round" points="
				688.132,447.945 689.29,451.828 692.783,452.611 693.167,455.72 695.882,458.44 697.823,457.282 701.316,458.842 
				702.476,461.173 700.531,463.498 705.577,464.283 710.637,458.469 714.908,458.475 716.844,463.528 725.768,464.709 
				730.438,459.67 735.108,452.685 739,448.034 			"/>
			<polyline fill="none" stroke="#FFFFFF" stroke-width="3" stroke-linecap="round" stroke-linejoin="round" points="
				655.462,476.235 657.417,468.862 660.915,464.985 661.312,461.877 660.54,458.769 665.618,443.246 669.111,442.088 
				671.44,443.645 679.597,442.106 681.148,444.438 688.132,447.945 			"/>
			<polyline fill="none" stroke="#FFFFFF" stroke-width="3" stroke-linecap="round" stroke-linejoin="round" points="
				575.688,422.688 577.886,426.394 580.981,429.118 584.08,435.338 585.632,436.117 586.007,443.106 599.594,446.235 
				601.144,448.179 601.126,457.889 601.898,461.386 601.12,464.104 597.234,462.933 597.229,466.426 595.291,466.424 
				594.897,468.365 			"/>
			<polyline fill="none" stroke="#FFFFFF" stroke-width="3" stroke-linecap="round" stroke-linejoin="round" points="
				575.688,422.688 570.896,424.052 572.055,428.716 567.782,429.096 565.447,431.423 563.895,431.419 565.067,427.925 
				560.411,424.811 557.299,427.525 554.199,425.187 547.2,428.284 542.164,423.613 538.867,420.968 537.317,417.081 			"/>
			<path fill="none" stroke="#FFFFFF" stroke-width="3" stroke-linecap="round" stroke-linejoin="round" d="M594.897,468.365
				l1.544,3.498l1.939,3.497c0,0,9.32,0.794,12.425,0.796c3.104,0.008,6.602-0.761,6.602-0.761l2.325,3.109l3.497-0.772"/>
			<polyline fill="none" stroke="#FFFFFF" stroke-width="3" stroke-linecap="round" stroke-linejoin="round" points="
				655.462,476.235 651.968,475.452 649.253,473.509 648.874,469.233 650.819,466.134 646.938,463.409 641.497,467.667 
				639.558,465.332 636.453,466.105 628.296,466.868 627.896,473.47 627.113,475.797 624.398,475.018 623.229,477.732 			"/>
		</g>
		<g>
			<polyline fill="none" stroke="#FFFFFF" stroke-width="3" stroke-linecap="round" stroke-linejoin="round" points="
				784.486,308.392 785.251,314.605 791.077,315.003 795.724,322.393 793.383,329.767 795.703,333.265 798.812,333.656 
				801.911,336.769 804.62,342.602 			"/>
			
				<line fill="none" stroke="#FFFFFF" stroke-width="3" stroke-linecap="round" stroke-linejoin="round" x1="784.486" y1="308.392" x2="781.372" y2="312.271"/>
			<polyline fill="none" stroke="#FFFFFF" stroke-width="3" stroke-linecap="round" stroke-linejoin="round" points="
				720.42,304.396 720.815,300.516 721.982,297.799 723.924,298.19 724.303,303.628 728.58,300.529 730.143,294.317 
				733.644,291.603 735.973,293.163 735.575,298.209 739.062,301.71 743.336,301.717 746.833,299.006 753.05,297.854 
				758.864,303.69 766.249,299.04 772.065,304.875 781.372,312.271 			"/>
			<polyline fill="none" stroke="#FFFFFF" stroke-width="3" stroke-linecap="round" stroke-linejoin="round" points="689.3,333.468 
				692.804,329.59 699.405,328.434 701.348,329.217 704.455,328.059 707.563,328.062 711.849,320.305 708.356,317.97 
				709.917,313.698 712.252,311.374 715.358,311.378 716.14,308.663 719.249,307.115 720.42,304.396 			"/>
			<polyline fill="none" stroke="#FFFFFF" stroke-width="3" stroke-linecap="round" stroke-linejoin="round" points="
				617.896,305.772 619.456,302.668 625.285,301.903 633.435,302.692 634.607,297.646 640.049,296.101 643.928,297.273 			"/>
			<path fill="none" stroke="#FFFFFF" stroke-width="3" stroke-linecap="round" stroke-linejoin="round" d="M689.3,333.468
				l-0.004,3.883l-4.662,0.769l-3.887,3.099l-1.94-1.557l1.561-3.879l-5.04-5.058l-1.172,3.493L659.42,322.93
				c0,0,3.504-6.206,3.12-8.927c-0.384-2.719-3.1-2.331-3.1-2.331l-0.77-4.664l-2.335,2.714l-2.325-2.335l0.006-5.435l-3.104-1.171
				l-1.936-3.11l-5.05-0.397"/>
			<path fill="none" stroke="#FFFFFF" stroke-width="3" stroke-linecap="round" stroke-linejoin="round" d="M559.718,264.506
				l1.546,4.662l4.666-2.706l7.744,12.438l-2.725,4.656l2.327,1.556l1.941-1.55l2.715,2.335l-0.002,1.553l4.662-1.932l2.329,2.331
				l-0.011,4.274l2.325,4.272l3.108-0.381l-0.397,4.66l3.493,0.006c0,0-1.168,3.491-0.006,5.05c1.158,1.552,2.71,1.945,2.71,1.945
				l10.879-3.09l5.827-0.377l3.104,1.556l1.941,0.007"/>
		</g>
	</g>
</g>
<g id="noms">
	<g>
		<g>
			<g>
				<text transform="matrix(1 0 0 1 121.5215 274.3794)" fill="#231F20" font-size="18">BRETAGNE</text>
			</g>
		</g>
	</g>
	<g>
		<g>
			<g>
				<g>
					<text transform="matrix(1 0 0 1 591.2119 364.8257)"><tspan x="0" y="0" fill="#231F20" font-size="18">BOURGOGNE -</tspan><tspan x="-12.375" y="21" fill="#231F20" font-size="18">FRANCHE-COMTÉ</tspan></text>
				</g>
			</g>
		</g>
	</g>
	<g>
		<g>
			<g>
				<g>
					<text transform="matrix(1 0 0 1 413.1338 339.8311)"><tspan x="0" y="0" fill="#231F20" font-size="18">CENTRE - </tspan><tspan x="-17.793" y="21" fill="#231F20" font-size="18">VAL-DE-LOIRE</tspan></text>
				</g>
			</g>
		</g>
	</g>
	<g>
		<g>
			<g>
				<g>
					<g>
						<text transform="matrix(1 0 0 1 597.6191 525.2031)"><tspan x="0" y="0" fill="#231F20" font-size="18">AUVERGNE -</tspan><tspan x="-9.126" y="21" fill="#231F20" font-size="18">RHÔNE-ALPES </tspan></text>
					</g>
				</g>
			</g>
		</g>
	</g>
	<g>
		<g>
			<g>
				<g>
					<text transform="matrix(1 0 0 1 495.8867 87.71)"><tspan x="0" y="0" fill="#231F20" font-size="18">NORD-</tspan><tspan x="-38.276" y="21" fill="#231F20" font-size="18">PAS-DE-CALAIS -</tspan><tspan x="-10.179" y="42" fill="#231F20" font-size="18">PICARDIE</tspan></text>
				</g>
			</g>
		</g>
	</g>
	<g>
		<g>
			<g>
				<g>
					<text transform="matrix(1 0 0 1 603.25 211.9971)"><tspan x="0" y="0" fill="#231F20" font-size="18">CHAMPAGNE-ARDENNE -</tspan><tspan x="20.861" y="21" fill="#231F20" font-size="18">LORRAINE - ALSACE</tspan></text>
				</g>
			</g>
		</g>
	</g>
	<g>
		<g>
			<g>
				<g>
					<text transform="matrix(1 0 0 1 292.8027 528.1904)"><tspan x="0" y="0" fill="#231F20" font-size="18">POITOU-CHARENTES -</tspan><tspan x="40.851" y="21" fill="#231F20" font-size="18">LIMOUSIN - </tspan><tspan x="39.428" y="42" fill="#231F20" font-size="18">AQUITAINE </tspan></text>
				</g>
			</g>
		</g>
	</g>
	<g>
		<g>
			<g>
				<g>
					<text transform="matrix(1 0 0 1 411.4814 709.1211)"><tspan x="0" y="0" fill="#231F20" font-size="18">MIDI-PYRÉNÉES -</tspan><tspan x="-38.079" y="21" fill="#231F20" font-size="18">LANGUEDOC-ROUSSILLON</tspan></text>
				</g>
			</g>
		</g>
	</g>
	<g>
		<g>
			<g>
				<text transform="matrix(1 0 0 1 679.0127 695.7461)"><tspan x="0" y="0" fill="#231F20" font-size="18">PROVENCE-ALPES-</tspan><tspan x="19.998" y="21" fill="#231F20" font-size="18">CÔTE D&apos;AZUR</tspan></text>
			</g>
		</g>
	</g>
	<g>
		<g>
			<g>
				<g>
					<text transform="matrix(1 0 0 1 266.1436 331.6899)"><tspan x="0" y="0" fill="#231F20" font-size="18">PAYS DE</tspan><tspan x="-1.683" y="21" fill="#231F20" font-size="18">LA LOIRE</tspan></text>
				</g>
			</g>
		</g>
	</g>
	<g>
		<g>
			<g>
				<g>
					<text transform="matrix(1 0 0 1 259.1855 188.4805)"><tspan x="33.939" y="21" fill="#231F20" font-size="18">NORMANDIE</tspan></text>
				</g>
			</g>
		</g>
	</g>
	<g>
		<g>
			<g>
				<g>
					<g>
						<text transform="matrix(1 0 0 1 472.458 226.0513)"><tspan x="0" y="0" fill="#231F20" font-size="18">ÎLE-DE- </tspan><tspan x="-3.537" y="20" fill="#231F20" font-size="18">FRANCE</tspan></text>
					</g>
				</g>
			</g>
		</g>
	</g>
	<g>
		<g>
			<g>
				<g>
					<g>
						<g>
							<text transform="matrix(1 0 0 1 827.9707 786.2363)" fill="#231F20" font-size="18">CORSE</text>
						</g>
					</g>
				</g>
			</g>
		</g>
	</g>
	<g>
		<text transform="matrix(1 0 0 1 25.4194 693.2871)" fill="#231F20" font-size="18">MAYOTTE</text>
	</g>
	<g>
		<text transform="matrix(1 0 0 1 8.689 475.7148)" fill="#231F20" font-size="18">GUADELOUPE</text>
	</g>
	<g>
		<text transform="matrix(1 0 0 1 26.3467 574.6582)" fill="#231F20" font-size="18">RÉUNION</text>
	</g>
	<g>
		<text transform="matrix(1 0 0 1 30.1538 799.2812)" fill="#231F20" font-size="18">GUYANE</text>
	</g>
	<g>
		<text transform="matrix(1 0 0 1 12.1719 895.3555)" fill="#231F20" font-size="18">MARTINIQUE</text>
	</g>
</g>
<g id="Légende">
</g>
</svg>
